<svg id="Layer_1" data-name="Layer 1" xmlns="http://www.w3.org/2000/svg" viewBox="0 0 141.21 184.24"><defs><style>.cls-1{fill:#333;}</style></defs><title>Artboard 1</title><path class="cls-1" d="M37.55,15.61V6.07h2.32V7.69a3.64,3.64,0,0,1,.3-.59A2.69,2.69,0,0,1,41,6.25a2.18,2.18,0,0,1,2.15-.07,2.62,2.62,0,0,1,.83.69,2.42,2.42,0,0,1,.47,1l-2.18,1a1.14,1.14,0,0,0-.38-.59A1,1,0,0,0,41.27,8a1,1,0,0,0-.87.48,2.36,2.36,0,0,0-.44,1,5.89,5.89,0,0,0-.09,1v5.09Z"/><path class="cls-1" d="M48.22,15.76a4.67,4.67,0,0,1-1.57-.27,3.38,3.38,0,0,1-1.34-.87,3.59,3.59,0,0,1-.81-1.37,5.44,5.44,0,0,1-.24-1.6V10a5.22,5.22,0,0,1,.23-1.56,3.47,3.47,0,0,1,.76-1.38,3.23,3.23,0,0,1,1.3-.88,4.4,4.4,0,0,1,3.09,0,3.23,3.23,0,0,1,1.3.88,3.47,3.47,0,0,1,.76,1.38A5.56,5.56,0,0,1,51.93,10v1.86H46.58a3.76,3.76,0,0,0,.16.74,1.48,1.48,0,0,0,.58.75,1.58,1.58,0,0,0,.9.29,1.8,1.8,0,0,0,.69-.13,1.32,1.32,0,0,0,.56-.43,1.9,1.9,0,0,0,.33-.63l2.15.79a3.6,3.6,0,0,1-.82,1.36,3.24,3.24,0,0,1-1.33.87A5,5,0,0,1,48.22,15.76Zm-1.64-6h3a5.4,5.4,0,0,0-.13-.7A1.61,1.61,0,0,0,49,8.32a1.37,1.37,0,0,0-1.71,0,1.54,1.54,0,0,0-.53.78A5.4,5.4,0,0,0,46.58,9.8Z"/><path class="cls-1" d="M55.8,15.76a5.89,5.89,0,0,1-1.5-.2A3.27,3.27,0,0,1,53,14.85a3.19,3.19,0,0,1-.87-1.22l2.1-.88a1.5,1.5,0,0,0,1.59.92,4,4,0,0,0,.6-.05,1.58,1.58,0,0,0,.57-.24.55.55,0,0,0,.27-.48.8.8,0,0,0-.55-.77,3.41,3.41,0,0,0-1.06-.28,9.06,9.06,0,0,1-1-.13,3.73,3.73,0,0,1-1-.34,2.79,2.79,0,0,1-.8-.65,2.73,2.73,0,0,1-.51-.91,3.06,3.06,0,0,1-.18-1,2.64,2.64,0,0,1,.33-1.27,2.49,2.49,0,0,1,.89-1,3.68,3.68,0,0,1,1.22-.49,6.6,6.6,0,0,1,1.33-.14,5.81,5.81,0,0,1,1.49.2,3.27,3.27,0,0,1,1.32.71,3.37,3.37,0,0,1,.88,1.21l-2.11.89A1.49,1.49,0,0,0,55.91,8a4.07,4.07,0,0,0-.61.05,1.61,1.61,0,0,0-.56.24.55.55,0,0,0-.27.48.8.8,0,0,0,.55.77,3.34,3.34,0,0,0,1.06.28,8.89,8.89,0,0,1,1,.13,3.67,3.67,0,0,1,1,.34,2.76,2.76,0,0,1,1.31,1.56,3.32,3.32,0,0,1,.17,1,2.75,2.75,0,0,1-.32,1.27,2.65,2.65,0,0,1-.89,1,3.65,3.65,0,0,1-1.23.49A6.58,6.58,0,0,1,55.8,15.76Z"/><path class="cls-1" d="M64.89,15.76a3.42,3.42,0,0,1-1.43-.32,2.83,2.83,0,0,1-1.13-.92,3.68,3.68,0,0,1-.6-1.34,6.39,6.39,0,0,1-.17-1.45V8.16H60V6.07h1.57V2.38h2.3V6.07h2.43V8.16H63.86v3.57a5.39,5.39,0,0,0,.07.79,2.19,2.19,0,0,0,.31.77.74.74,0,0,0,.65.38.79.79,0,0,0,.73-.5,3.29,3.29,0,0,0,.3-1l2.21.64A4.68,4.68,0,0,1,67.76,14a3.72,3.72,0,0,1-.69,1,2.71,2.71,0,0,1-1,.62A3.69,3.69,0,0,1,64.89,15.76Z"/><path class="cls-1" d="M71.58,15.61a3.58,3.58,0,0,1-1.12-.17,2.42,2.42,0,0,1-1-.56,2.32,2.32,0,0,1-.61-.94,3.25,3.25,0,0,1-.19-1.12V4.47h-2V2.38H71V12.82a1,1,0,0,0,.06.35.58.58,0,0,0,.21.26.6.6,0,0,0,.32.1h1.57v2.08Z"/><path class="cls-1" d="M77.72,15.76a4.67,4.67,0,0,1-1.57-.27,3.28,3.28,0,0,1-1.33-.87A3.49,3.49,0,0,1,74,13.25a5.44,5.44,0,0,1-.24-1.6V10A5.56,5.56,0,0,1,74,8.47a3.47,3.47,0,0,1,.76-1.38,3.23,3.23,0,0,1,1.3-.88,4.4,4.4,0,0,1,3.09,0,3.23,3.23,0,0,1,1.3.88,3.49,3.49,0,0,1,.77,1.38A5.93,5.93,0,0,1,81.43,10v1.86H76.08a3.18,3.18,0,0,0,.17.74,1.46,1.46,0,0,0,.57.75,1.58,1.58,0,0,0,.9.29,1.89,1.89,0,0,0,.7-.13,1.36,1.36,0,0,0,.55-.43,2.13,2.13,0,0,0,.34-.63l2.14.79a3.6,3.6,0,0,1-.82,1.36,3.24,3.24,0,0,1-1.33.87A5,5,0,0,1,77.72,15.76Zm-1.64-6h3A5.4,5.4,0,0,0,79,9.1a1.54,1.54,0,0,0-.53-.78,1.37,1.37,0,0,0-1.71,0,1.61,1.61,0,0,0-.53.78A5.4,5.4,0,0,0,76.08,9.8Z"/><path class="cls-1" d="M85.3,15.76a5.81,5.81,0,0,1-1.49-.2,3.24,3.24,0,0,1-1.33-.71,3.19,3.19,0,0,1-.87-1.22l2.11-.88a1.48,1.48,0,0,0,1.58.92,3.94,3.94,0,0,0,.6-.05,1.58,1.58,0,0,0,.57-.24.55.55,0,0,0,.27-.48.8.8,0,0,0-.55-.77,3.34,3.34,0,0,0-1.06-.28,9.35,9.35,0,0,1-1-.13,3.73,3.73,0,0,1-1-.34,2.93,2.93,0,0,1-.8-.65,2.73,2.73,0,0,1-.51-.91,3,3,0,0,1-.17-1A2.63,2.63,0,0,1,82,7.52a2.57,2.57,0,0,1,.89-1,3.68,3.68,0,0,1,1.22-.49,6.6,6.6,0,0,1,1.33-.14,5.81,5.81,0,0,1,1.49.2,3.37,3.37,0,0,1,1.33.71,3.23,3.23,0,0,1,.87,1.21L87,8.94A1.48,1.48,0,0,0,85.41,8a3.83,3.83,0,0,0-.6.05,1.58,1.58,0,0,0-.57.24.55.55,0,0,0-.27.48.8.8,0,0,0,.55.77,3.34,3.34,0,0,0,1.06.28,9.35,9.35,0,0,1,1,.13,3.73,3.73,0,0,1,1,.34,2.93,2.93,0,0,1,.8.65,2.73,2.73,0,0,1,.51.91,3.32,3.32,0,0,1,.17,1,2.75,2.75,0,0,1-.32,1.27,2.57,2.57,0,0,1-.89,1,3.65,3.65,0,0,1-1.23.49A6.5,6.5,0,0,1,85.3,15.76Z"/><path class="cls-1" d="M93.06,15.76a5.89,5.89,0,0,1-1.5-.2,3.27,3.27,0,0,1-1.32-.71,3.19,3.19,0,0,1-.87-1.22l2.1-.88a1.5,1.5,0,0,0,1.59.92,4,4,0,0,0,.6-.05,1.58,1.58,0,0,0,.57-.24.55.55,0,0,0,.27-.48.8.8,0,0,0-.55-.77,3.41,3.41,0,0,0-1.06-.28,9.06,9.06,0,0,1-1-.13,3.73,3.73,0,0,1-1-.34,2.79,2.79,0,0,1-.8-.65,2.73,2.73,0,0,1-.51-.91,3.06,3.06,0,0,1-.18-1,2.64,2.64,0,0,1,.33-1.27,2.49,2.49,0,0,1,.89-1,3.68,3.68,0,0,1,1.22-.49,6.6,6.6,0,0,1,1.33-.14,5.81,5.81,0,0,1,1.49.2A3.27,3.27,0,0,1,96,6.84a3.37,3.37,0,0,1,.88,1.21l-2.11.89A1.49,1.49,0,0,0,93.17,8a4.07,4.07,0,0,0-.61.05,1.61,1.61,0,0,0-.56.24.55.55,0,0,0-.27.48.8.8,0,0,0,.55.77,3.34,3.34,0,0,0,1.06.28,8.89,8.89,0,0,1,1,.13,3.49,3.49,0,0,1,1,.34,2.83,2.83,0,0,1,.81.65,2.92,2.92,0,0,1,.51.91,3.32,3.32,0,0,1,.17,1,2.75,2.75,0,0,1-.32,1.27,2.65,2.65,0,0,1-.89,1,3.65,3.65,0,0,1-1.23.49A6.58,6.58,0,0,1,93.06,15.76Z"/><path class="cls-1" d="M100.58,11.71l-.36-.07a6.52,6.52,0,0,1,.42-1.39,3.28,3.28,0,0,1,.87-1.2c.39-.34.79-.67,1.19-1a5.23,5.23,0,0,0,1-1.1,3.48,3.48,0,0,0,.58-1.35,3.7,3.7,0,0,0,0-1.15,2.35,2.35,0,0,0-.42-1,1.81,1.81,0,0,0-.85-.67,3.06,3.06,0,0,0-1.13-.21,3.5,3.5,0,0,0-1.09.18,3.09,3.09,0,0,0-1,.57,3.78,3.78,0,0,0-.76.89,4.9,4.9,0,0,0-.47,1l-.34-.08A5.25,5.25,0,0,1,98.77,4a4.12,4.12,0,0,1,.85-1,3.34,3.34,0,0,1,1.12-.62,3.86,3.86,0,0,1,1.19-.2,3.67,3.67,0,0,1,1.28.23,2.15,2.15,0,0,1,1,.74,2.79,2.79,0,0,1,.49,1.16,4,4,0,0,1,0,1.33,3.81,3.81,0,0,1-.41,1.14,4,4,0,0,1-.75,1,10.9,10.9,0,0,1-1,.83,10.55,10.55,0,0,0-1,.83,2.9,2.9,0,0,0-.67,1A6.78,6.78,0,0,0,100.58,11.71Zm-.79,4a.82.82,0,0,1-.31-.07.47.47,0,0,1-.23-.23.71.71,0,0,1-.07-.32.75.75,0,0,1,.07-.33.45.45,0,0,1,.23-.22.67.67,0,0,1,.31-.07.72.72,0,0,1,.33.07.45.45,0,0,1,.23.22.75.75,0,0,1,.07.33.71.71,0,0,1-.07.32.47.47,0,0,1-.23.23A.88.88,0,0,1,99.79,15.76Z"/><path class="cls-1" d="M14.75,56.61V56c1.72-.19,1.88-.28,1.88-2.06V45.63c0-1.8-.16-1.89-1.88-2.07V43h5.62v.59c-1.74.18-1.91.27-1.91,2.07V54c0,1.8.17,1.87,1.91,2.06v.58Z"/><path class="cls-1" d="M24,56.59a2.1,2.1,0,0,1-.9.28c-1.34,0-2.06-.82-2.06-2.5V48.26H19.55L19.47,48,20,47.4h1V45.63c.4-.42,1-1,1.41-1.38l.31,0c0,.88-.06,2.1-.06,3.11h2.4a.67.67,0,0,1-.13.86H22.66v5.37c0,1.7.67,2,1.22,2a3,3,0,0,0,1.28-.34l.19.55Z"/><path class="cls-1" d="M25.45,45.91c1-.42,1.64-1,1.64-1.77s-.71-1-1.38-1.11c-.15,0-.3-.31-.3-.59a1,1,0,0,1,1.07-.94,1.94,1.94,0,0,1,1.85,2.14,3.21,3.21,0,0,1-2.62,2.85Z"/><path class="cls-1" d="M31.94,49.9c-.38-1.22-.92-2.06-2.2-2.06a1.27,1.27,0,0,0-1.3,1.36c0,.91.61,1.33,1.78,1.87,1.81.86,2.71,1.49,2.71,2.88,0,1.93-1.76,2.92-3.42,2.92a5.52,5.52,0,0,1-2.5-.59c-.11-.61-.3-1.76-.38-2.46l.61-.1c.38,1.34,1.11,2.43,2.58,2.43a1.39,1.39,0,0,0,1.47-1.42c0-.95-.56-1.43-1.68-2C28.14,52,27,51.37,27,49.85s1.3-2.7,3.27-2.7a11.21,11.21,0,0,1,2,.27c.06.5.21,1.83.31,2.33Z"/><path class="cls-1" d="M42.32,56.61V56c1.21-.13,1.34-.28,1.34-1.7V50.86c0-1.47-.53-2.45-1.91-2.45a3.65,3.65,0,0,0-2.33,1.09v4.91c0,1.45.12,1.49,1.36,1.62v.58H36.25V56c1.38-.15,1.51-.23,1.51-1.62V50.08c0-1.36-.15-1.42-1.28-1.61v-.55a11.92,11.92,0,0,0,2.94-.84v1.66c.42-.29.88-.61,1.43-1a3.17,3.17,0,0,1,1.74-.63c1.68,0,2.73,1.23,2.73,3.27v4c0,1.43.12,1.49,1.34,1.62v.58Z"/><path class="cls-1" d="M51.14,47.15a4.51,4.51,0,0,1,4.57,4.7,4.71,4.71,0,0,1-4.57,5,4.61,4.61,0,0,1-4.66-4.69A4.8,4.8,0,0,1,51.14,47.15Zm-.26.71c-1.28,0-2.43,1.24-2.43,3.67,0,2.67,1.17,4.6,2.9,4.6,1.3,0,2.39-.94,2.39-3.82C53.74,49.85,52.73,47.86,50.88,47.86Z"/><path class="cls-1" d="M59.87,56.59a2.1,2.1,0,0,1-.9.28c-1.34,0-2.06-.82-2.06-2.5V48.26H55.46L55.38,48,56,47.4h1V45.63c.4-.42,1-1,1.41-1.38l.31,0c0,.88-.06,2.1-.06,3.11H61a.65.65,0,0,1-.12.86H58.57v5.37c0,1.7.67,2,1.22,2a3,3,0,0,0,1.28-.34l.19.55Z"/><path class="cls-1" d="M64.14,47.92a13,13,0,0,0,3.08-.82v7.21a9.26,9.26,0,0,1-.48,3.42,11.1,11.1,0,0,1-2.52,4.09.85.85,0,0,1-.55.23,1,1,0,0,1-.77-.94.43.43,0,0,1,.33-.49,2.88,2.88,0,0,0,1.62-.79,3.17,3.17,0,0,0,.55-1.47,33.16,33.16,0,0,0,.16-4.08V50.13c0-1.41-.1-1.49-1.42-1.68ZM66.3,45a1.08,1.08,0,0,1-1.07-1.07,1.07,1.07,0,0,1,1.09-1.11,1,1,0,0,1,1,1.11A1.07,1.07,0,0,1,66.3,45Z"/><path class="cls-1" d="M78.25,56.13a23.92,23.92,0,0,0-3.22.74V55.25c-1.13.94-2,1.62-3.21,1.62-1.41,0-2.62-.86-2.62-3.15V49.64c0-1.13-.17-1.26-.7-1.36l-.58-.11v-.54a27.21,27.21,0,0,0,3-.38c-.07.67-.07,1.68-.07,3.07v2.85c0,1.85,1,2.37,1.91,2.37a3.31,3.31,0,0,0,2.27-1v-4.9c0-1.13-.25-1.28-1-1.38l-.67-.09v-.54a29.72,29.72,0,0,0,3.29-.38v7c0,1,.17,1.2,1,1.24l.59,0Z"/><path class="cls-1" d="M83.2,49.9c-.38-1.22-.92-2.06-2.2-2.06a1.27,1.27,0,0,0-1.3,1.36c0,.91.6,1.33,1.78,1.87,1.81.86,2.71,1.49,2.71,2.88,0,1.93-1.77,2.92-3.42,2.92a5.49,5.49,0,0,1-2.5-.59c-.11-.61-.3-1.76-.38-2.46l.61-.1c.38,1.34,1.11,2.43,2.58,2.43a1.39,1.39,0,0,0,1.47-1.42c0-.95-.57-1.43-1.68-2-1.47-.71-2.66-1.38-2.66-2.9s1.3-2.7,3.27-2.7a11.21,11.21,0,0,1,2,.27c.06.5.21,1.83.31,2.33Z"/><path class="cls-1" d="M88,56.59a2.14,2.14,0,0,1-.9.28c-1.34,0-2.06-.82-2.06-2.5V48.26H83.62L83.54,48l.57-.61h1V45.63c.4-.42,1-1,1.41-1.38l.31,0c0,.88-.06,2.1-.06,3.11h2.39a.65.65,0,0,1-.12.86H86.73v5.37c0,1.7.67,2,1.22,2a3,3,0,0,0,1.28-.34l.19.55Z"/><path class="cls-1" d="M101.49,48c-1.09.17-1.32.34-1.85,1.54s-1.09,2.6-2.54,6.25A60.28,60.28,0,0,0,95,61.51c-.12.44-.35.54-.62.54a1.22,1.22,0,0,1-1.29-1c0-.27.15-.46.47-.73A4.68,4.68,0,0,0,95,58.76c.44-.89.76-1.62.86-1.89a1.17,1.17,0,0,0,0-.86c-.82-2.4-2-5-2.58-6.49-.46-1.16-.65-1.41-1.81-1.56V47.4h4.25V48c-1,.15-1.08.36-.8,1.14l2,5.16c.59-1.45,1.43-3.78,1.87-5.1.25-.8.11-1-1.11-1.2V47.4h3.84Z"/><path class="cls-1" d="M105.21,47.15a4.52,4.52,0,0,1,4.58,4.7,4.71,4.71,0,0,1-4.58,5,4.61,4.61,0,0,1-4.66-4.69A4.8,4.8,0,0,1,105.21,47.15Zm-.25.71c-1.28,0-2.44,1.24-2.44,3.67,0,2.67,1.18,4.6,2.9,4.6,1.3,0,2.39-.94,2.39-3.82C107.81,49.85,106.8,47.86,105,47.86Z"/><path class="cls-1" d="M120,56.13a23.79,23.79,0,0,0-3.21.74V55.25c-1.13.94-2.06,1.62-3.21,1.62-1.41,0-2.63-.86-2.63-3.15V49.64c0-1.13-.17-1.26-.69-1.36l-.59-.11v-.54a27.1,27.1,0,0,0,3-.38c-.07.67-.07,1.68-.07,3.07v2.85c0,1.85,1,2.37,1.91,2.37a3.31,3.31,0,0,0,2.27-1v-4.9c0-1.13-.25-1.28-1-1.38l-.67-.09v-.54a29.66,29.66,0,0,0,3.3-.38v7c0,1,.17,1.2,1,1.24l.59,0Z"/><path class="cls-1" d="M121.69,56.91a1.26,1.26,0,0,1-1.28-1.35,1.28,1.28,0,0,1,1.28-1.34A1.31,1.31,0,0,1,123,55.56,1.29,1.29,0,0,1,121.69,56.91Z"/><path class="cls-1" d="M28.94,72.75a5.15,5.15,0,0,0-.47-1.2c-.23-.36-.37-.46-1.15-.46H26v6.77c0,1.11.12,1.25,1.44,1.34v.41H23.27V79.2c1.28-.09,1.39-.22,1.39-1.34V71.09h-1.2c-.77,0-1,.09-1.24.49a6.41,6.41,0,0,0-.48,1.17H21.3c.09-.88.17-1.8.21-2.57h.34c.21.34.37.33.77.33h5.55a.75.75,0,0,0,.74-.33h.34c0,.65.06,1.7.13,2.53Z"/><path class="cls-1" d="M33.12,79.61v-.4c.78-.09.88-.16.88-1.06V75.82c0-1.14-.45-1.69-1.32-1.68a1.91,1.91,0,0,0-1.4.67v3.34c0,.88.1,1,.91,1.06v.4H29.08v-.4c.79-.07,1-.14,1-1.07v-6.7c0-.73,0-.9-1-1v-.38a9.8,9.8,0,0,0,2.2-.47v4.7a3.1,3.1,0,0,1,2-1c1.16,0,1.95.73,1.95,2.39v2.48c0,.92.11,1,.9,1.06v.4Z"/><path class="cls-1" d="M35.93,79.61v-.4c.86-.09,1-.16,1-1.12V75.24c0-.89,0-.94-.86-1.07v-.36a9.82,9.82,0,0,0,2.09-.55v4.83c0,1,.09,1,1,1.12v.4ZM37.42,72a.81.81,0,0,1-.79-.79.8.8,0,0,1,.8-.81.77.77,0,0,1,.77.81A.79.79,0,0,1,37.42,72Z"/><path class="cls-1" d="M42.85,79.61v-.4c.77-.09.85-.18.85-1.13V75.75c0-1-.38-1.58-1.22-1.58a2.31,2.31,0,0,0-1.47.68v3.29c0,1,.08,1,.86,1.07v.4H38.81v-.4c.89-.11,1-.15,1-1.08V75.24c0-.89-.1-.94-.83-1.06V73.8A8.65,8.65,0,0,0,41,73.24c0,.3,0,.76,0,1.09l1-.64a2.09,2.09,0,0,1,1.15-.41c1.12,0,1.82.83,1.82,2.2v2.66c0,.94.09,1,.87,1.07v.4Z"/><path class="cls-1" d="M47.53,77.54a1,1,0,0,0-.43.66c0,.25.25.53.86.53h1.57c.89,0,2,.31,2,1.69S49.82,83.24,48,83.24c-1.63,0-2.48-.92-2.5-1.73a1.09,1.09,0,0,1,.36-.8A14.21,14.21,0,0,1,47,79.76,1.9,1.9,0,0,1,45.9,79a1.2,1.2,0,0,1-.17-.63,3.1,3.1,0,0,0,1.32-1Zm.67.14a2.19,2.19,0,0,1-2.43-2.11,2.43,2.43,0,0,1,2.56-2.32,3,3,0,0,1,1.39.35,10.21,10.21,0,0,0,1.88-.2l.09.12a1.85,1.85,0,0,1-.52.76c-.22,0-.67,0-.86-.07a2.12,2.12,0,0,1,.39,1.26A2.28,2.28,0,0,1,48.2,77.68Zm.29,2.12a1.83,1.83,0,0,0-1.25.29,1.53,1.53,0,0,0-.62,1.08c0,.77.78,1.34,1.88,1.34,1.29,0,2-.65,2-1.52a1,1,0,0,0-.65-1A3.66,3.66,0,0,0,48.49,79.8Zm-.29-6.09c-.59,0-1.13.57-1.13,1.66s.52,1.85,1.27,1.85c.6,0,1.1-.55,1.1-1.66S49,73.71,48.2,73.71Z"/><path class="cls-1" d="M54.76,75.15c-.27-.85-.66-1.39-1.48-1.39a.83.83,0,0,0-.84.89c0,.58.39.85,1.17,1.21,1.19.56,1.82,1,1.82,2a2.12,2.12,0,0,1-2.33,2,3.91,3.91,0,0,1-1.69-.39c-.06-.4-.19-1.2-.24-1.67l.41-.07c.26.89.77,1.64,1.74,1.64a.89.89,0,0,0,.94-.91c0-.6-.34-.92-1.11-1.29-1-.48-1.79-.93-1.79-2a2,2,0,0,1,2.23-1.84,6.65,6.65,0,0,1,1.37.19c0,.35.15,1.23.22,1.57Z"/><path class="cls-1" d="M63,78.34a3.31,3.31,0,0,1-2.4,1.44,2.85,2.85,0,0,1-2.88-3,3.31,3.31,0,0,1,1.42-2.73,3.76,3.76,0,0,1,2.18-.82,2,2,0,0,1,1.29.38.46.46,0,0,1,.24.42.75.75,0,0,1-.53.66c-.08,0-.14,0-.27-.14A2.17,2.17,0,0,0,60.59,74c-.85,0-1.64.74-1.64,2.21a2.28,2.28,0,0,0,2.1,2.57A2.22,2.22,0,0,0,62.72,78Z"/><path class="cls-1" d="M67.22,79.78a1.07,1.07,0,0,1-.7-.27,1.24,1.24,0,0,1-.34-.61,4.54,4.54,0,0,1-1.65.88,1.73,1.73,0,0,1-1.74-1.73,1.41,1.41,0,0,1,1.13-1.4,12.27,12.27,0,0,0,2.23-.91V75.4c0-1-.47-1.5-1.17-1.5a.79.79,0,0,0-.64.32,2.74,2.74,0,0,0-.37.91.42.42,0,0,1-.44.35.71.71,0,0,1-.66-.63c0-.21.18-.38.47-.58a6.08,6.08,0,0,1,2.06-1,2,2,0,0,1,1.22.39,1.92,1.92,0,0,1,.72,1.64V78c0,.65.24.84.49.84a1.1,1.1,0,0,0,.49-.14l.14.4Zm-1.07-3.54c-.3.15-.9.42-1.21.56-.52.24-.83.5-.83,1a1,1,0,0,0,1,1.08,1.67,1.67,0,0,0,1.06-.46Z"/><path class="cls-1" d="M72.08,79.61v-.4c.77-.09.85-.18.85-1.13V75.75c0-1-.37-1.58-1.22-1.58a2.26,2.26,0,0,0-1.46.68v3.29c0,1,.07,1,.85,1.07v.4H68v-.4c.89-.11,1-.15,1-1.08V75.24c0-.89-.1-.94-.83-1.06V73.8a8.65,8.65,0,0,0,2.07-.56v1.09l.94-.64a2.09,2.09,0,0,1,1.15-.41c1.12,0,1.82.83,1.82,2.2v2.66c0,.94.09,1,.87,1.07v.4Z"/><path class="cls-1" d="M80.06,73.45a1.72,1.72,0,0,1,.68-.17,2.87,2.87,0,0,1,2.78,3A3.58,3.58,0,0,1,80,79.78a5.52,5.52,0,0,1-2.22-.5V71.46c0-.85,0-.94-.92-1v-.39A12.67,12.67,0,0,0,79,69.59v4.3ZM79,78a1.13,1.13,0,0,0,.07.49,1.51,1.51,0,0,0,1.31.74c1.13,0,1.72-1,1.72-2.61s-1-2.53-2.06-2.53a2.61,2.61,0,0,0-1,.24Z"/><path class="cls-1" d="M88.8,78.39a3.18,3.18,0,0,1-2.37,1.39,2.8,2.8,0,0,1-2.78-3,3.65,3.65,0,0,1,.93-2.46,3,3,0,0,1,2.11-1,2.21,2.21,0,0,1,2.17,2.2c0,.27,0,.42-.26.47s-2.1.18-3.72.23C84.86,78,86,78.76,87,78.76a2.38,2.38,0,0,0,1.62-.7Zm-2.44-4.57c-.63,0-1.23.62-1.41,1.75.75,0,1.49,0,2.27,0,.25,0,.33-.06.33-.28A1.29,1.29,0,0,0,86.36,73.82Z"/><path class="cls-1" d="M93.89,73.45a1.73,1.73,0,0,1,.69-.17,2.87,2.87,0,0,1,2.77,3,3.58,3.58,0,0,1-3.5,3.53,5.52,5.52,0,0,1-2.22-.5V71.46c0-.85,0-.94-.92-1v-.39a12.67,12.67,0,0,0,2.16-.47v4.3Zm-1,4.55a1.3,1.3,0,0,0,.07.49,1.51,1.51,0,0,0,1.32.74c1.12,0,1.71-1,1.71-2.61s-1-2.53-2.06-2.53a2.61,2.61,0,0,0-1,.24Z"/><path class="cls-1" d="M102.63,78.39a3.18,3.18,0,0,1-2.37,1.39,2.8,2.8,0,0,1-2.78-3,3.61,3.61,0,0,1,.94-2.46,2.91,2.91,0,0,1,2.1-1,2.2,2.2,0,0,1,2.17,2.2c0,.27,0,.42-.26.47s-2.1.18-3.71.23c0,1.81,1.06,2.58,2.06,2.58a2.38,2.38,0,0,0,1.62-.7Zm-2.44-4.57c-.63,0-1.23.62-1.4,1.75.74,0,1.48,0,2.27,0,.24,0,.32-.06.32-.28A1.28,1.28,0,0,0,100.19,73.82Z"/><path class="cls-1" d="M105.42,79.61a1.42,1.42,0,0,1-.59.17c-.93,0-1.43-.54-1.43-1.68v-4h-1l-.06-.17.38-.43h.64V72.28c.3-.29.76-.67,1.06-1l.21,0c0,.55,0,1.35,0,2.09h1.56a.47.47,0,0,1-.09.6h-1.47v3.56c0,1.12.45,1.32.79,1.32a1.9,1.9,0,0,0,.82-.21l.13.39Z"/><path class="cls-1" d="M108.65,79.61a1.49,1.49,0,0,1-.6.17c-.93,0-1.43-.54-1.43-1.68v-4h-1l-.06-.17.38-.43h.64V72.28c.3-.29.76-.67,1.06-1l.21,0c0,.55,0,1.35,0,2.09h1.56a.47.47,0,0,1-.09.6h-1.47v3.56c0,1.12.45,1.32.79,1.32a1.9,1.9,0,0,0,.82-.21l.13.39Z"/><path class="cls-1" d="M114.19,78.39a3.16,3.16,0,0,1-2.37,1.39,2.8,2.8,0,0,1-2.78-3A3.61,3.61,0,0,1,110,74.3a2.94,2.94,0,0,1,2.1-1,2.21,2.21,0,0,1,2.18,2.2c0,.27-.05.42-.26.47s-2.11.18-3.72.23c0,1.81,1.07,2.58,2.06,2.58a2.36,2.36,0,0,0,1.62-.7Zm-2.43-4.57c-.63,0-1.23.62-1.41,1.75.75,0,1.49,0,2.27,0,.24,0,.33-.06.33-.28A1.29,1.29,0,0,0,111.76,73.82Z"/><path class="cls-1" d="M117.43,79.61h-3.31v-.4c.86-.09.94-.16.94-1.06V75.21c0-.88-.06-.93-.84-1v-.37a9,9,0,0,0,2.07-.56v1.53c.52-.77,1.09-1.5,1.77-1.5a.75.75,0,0,1,.83.71,1,1,0,0,1-.52.84.3.3,0,0,1-.38,0,.9.9,0,0,0-.63-.36c-.28,0-.77.38-1.07,1.07v2.63c0,.91.08,1,1.14,1.07Z"/><path class="cls-1" d="M118.78,79.81a.89.89,0,0,1-.91-1,.9.9,0,0,1,.91-1,.92.92,0,0,1,.93,1A.91.91,0,0,1,118.78,79.81Z"/><path class="cls-1" d="M6.84,103.76a2.54,2.54,0,0,1,1.52.39,1.52,1.52,0,0,1,.6,1.28,1.87,1.87,0,0,1-2,1.84H6.73l-.62-.17v1.41c0,.75.06.77.89.86v.25H4.52v-.25c.77-.08.81-.13.81-.88v-3.57c0-.81-.1-.82-.81-.89v-.26Zm-.73,3a1.7,1.7,0,0,0,.66.12,1.42,1.42,0,0,0-.06-2.83c-.26,0-.45,0-.5.11s-.1.17-.1.41Z"/><path class="cls-1" d="M11.08,109.61H9v-.25c.57,0,.62-.1.62-.68v-1.87c0-.6,0-.63-.56-.69v-.22a5.27,5.27,0,0,0,1.27-.37v1c.32-.47.69-1,1.14-1s.53.2.53.43a.61.61,0,0,1-.31.49.16.16,0,0,1-.23,0,.6.6,0,0,0-.41-.22c-.19,0-.52.28-.72.74v1.69c0,.59.05.64.74.69Z"/><path class="cls-1" d="M13.77,105.56a1.93,1.93,0,0,1,2,2,2,2,0,0,1-2,2.15,2,2,0,0,1-2-2A2.06,2.06,0,0,1,13.77,105.56Zm-.11.3c-.55,0-1,.53-1,1.58s.5,2,1.24,2c.56,0,1-.41,1-1.64C14.89,106.72,14.45,105.86,13.66,105.86Z"/><path class="cls-1" d="M17.09,108.3a.68.68,0,0,0-.3.45c0,.16.16.34.56.34h1c.58,0,1.32.19,1.32,1.08A2.21,2.21,0,0,1,17.37,112c-1,0-1.57-.59-1.58-1.12a.74.74,0,0,1,.22-.52,7.55,7.55,0,0,1,.74-.64,1.21,1.21,0,0,1-.68-.49.83.83,0,0,1-.1-.39,1.87,1.87,0,0,0,.82-.62Zm.43.09A1.4,1.4,0,0,1,16,107a1.55,1.55,0,0,1,1.62-1.5,1.9,1.9,0,0,1,.87.22,6.27,6.27,0,0,0,1.2-.13l.06.08a1.33,1.33,0,0,1-.33.48c-.14,0-.44,0-.56-.05a1.43,1.43,0,0,1,.26.82A1.46,1.46,0,0,1,17.52,108.39Zm.21,1.33a1.16,1.16,0,0,0-.8.19,1.05,1.05,0,0,0-.43.74c0,.5.51.86,1.2.86.86,0,1.34-.44,1.34-1a.68.68,0,0,0-.39-.66A2.41,2.41,0,0,0,17.73,109.72Zm-.21-3.91c-.4,0-.76.37-.76,1.09s.36,1.2.85,1.2.75-.35.75-1.08S18,105.81,17.52,105.81Z"/><path class="cls-1" d="M21.56,109.61H19.49v-.25c.57,0,.63-.1.63-.68v-1.87c0-.6,0-.63-.56-.69v-.22a5.4,5.4,0,0,0,1.27-.37v1c.31-.47.69-1,1.14-1a.46.46,0,0,1,.52.43.6.6,0,0,1-.3.49.17.17,0,0,1-.24,0,.56.56,0,0,0-.4-.22c-.19,0-.53.28-.72.74v1.69c0,.59,0,.64.73.69Z"/><path class="cls-1" d="M25.18,109.72a.66.66,0,0,1-.42-.17.88.88,0,0,1-.22-.4,2.84,2.84,0,0,1-1.08.57,1.1,1.1,0,0,1-1.1-1.1.92.92,0,0,1,.74-.9,7.36,7.36,0,0,0,1.43-.59V107c0-.64-.33-1-.8-1a.52.52,0,0,0-.42.21,1.8,1.8,0,0,0-.24.58.25.25,0,0,1-.26.21.43.43,0,0,1-.4-.39c0-.13.12-.24.3-.37a3.78,3.78,0,0,1,1.29-.62,1.27,1.27,0,0,1,.76.24,1.25,1.25,0,0,1,.46,1v1.74c0,.41.15.54.31.54a.79.79,0,0,0,.33-.1l.09.25Zm-.65-2.27-.84.37c-.34.16-.55.33-.55.66a.65.65,0,0,0,.65.69,1.2,1.2,0,0,0,.74-.32Z"/><path class="cls-1" d="M30.72,109.61v-.25c.53,0,.59-.09.59-.72v-1.5c0-.64-.21-1-.77-1a1.64,1.64,0,0,0-1,.47,3.46,3.46,0,0,1,0,.39v1.75c0,.56.08.61.57.66v.25H28.22v-.25c.55,0,.63-.09.63-.68v-1.55c0-.67-.2-1-.75-1a1.76,1.76,0,0,0-1,.47v2.12c0,.59.06.63.57.68v.25H25.75v-.25c.59,0,.65-.09.65-.68v-1.87c0-.57,0-.61-.54-.7v-.22a5.22,5.22,0,0,0,1.25-.36v.73a6.06,6.06,0,0,1,.66-.47,1.28,1.28,0,0,1,.72-.23,1,1,0,0,1,1,.73,8.55,8.55,0,0,1,.71-.5,1.33,1.33,0,0,1,.71-.23c.7,0,1.13.5,1.13,1.38v1.74c0,.6.06.63.57.68v.25Z"/><path class="cls-1" d="M34.83,106.73c-.16-.52-.4-.88-.94-.88a.55.55,0,0,0-.56.59c0,.38.26.56.76.8.78.37,1.16.64,1.16,1.23a1.33,1.33,0,0,1-1.46,1.25,2.37,2.37,0,0,1-1.08-.25c0-.26-.12-.76-.16-1l.26,0c.17.58.48,1,1.11,1a.6.6,0,0,0,.63-.61c0-.41-.24-.62-.72-.85s-1.14-.6-1.14-1.24a1.24,1.24,0,0,1,1.4-1.16,5.55,5.55,0,0,1,.87.11c0,.22.09.78.13,1Z"/><path class="cls-1" d="M39.19,106.73c-.17-.52-.4-.88-.95-.88a.55.55,0,0,0-.56.59c0,.38.26.56.77.8.77.37,1.16.64,1.16,1.23a1.34,1.34,0,0,1-1.47,1.25,2.32,2.32,0,0,1-1.07-.25c0-.26-.13-.76-.16-1l.26,0c.16.58.48,1,1.11,1a.6.6,0,0,0,.63-.61c0-.41-.25-.62-.72-.85-.63-.31-1.15-.6-1.15-1.24s.56-1.16,1.41-1.16a5.39,5.39,0,0,1,.86.11c0,.22.09.78.14,1Z"/><path class="cls-1" d="M42.12,109.61v-.25c.52,0,.59-.1.59-.69v-1.48c0-.74-.28-1.12-.89-1.11a1.27,1.27,0,0,0-1,.47v2.12c0,.58.07.64.61.69v.25h-2v-.25c.52,0,.64-.09.64-.69v-4.34c0-.48,0-.59-.63-.65v-.23a5.76,5.76,0,0,0,1.34-.31v3.07a2,2,0,0,1,1.3-.65c.74,0,1.26.45,1.26,1.53v1.59c0,.59.07.64.59.68v.25Z"/><path class="cls-1" d="M46,105.56a1.93,1.93,0,0,1,2,2,2,2,0,0,1-2,2.15,2,2,0,0,1-2-2A2.06,2.06,0,0,1,46,105.56Zm-.11.3c-.55,0-1,.53-1,1.58s.5,2,1.24,2c.56,0,1-.41,1-1.64C47.11,106.72,46.67,105.86,45.88,105.86Z"/><path class="cls-1" d="M52.4,109.41a10.81,10.81,0,0,0-1.38.31V109a2.22,2.22,0,0,1-1.38.69c-.6,0-1.12-.37-1.12-1.35v-1.74c0-.49-.07-.54-.3-.59L48,106v-.24c.39,0,1-.11,1.29-.16,0,.29,0,.72,0,1.31v1.23c0,.79.41,1,.82,1a1.43,1.43,0,0,0,1-.44v-2.09c0-.49-.11-.55-.41-.6l-.29,0v-.24a12.22,12.22,0,0,0,1.41-.16v3c0,.44.07.51.42.53h.25Z"/><path class="cls-1" d="M52.16,109.61v-.25c.58,0,.65-.1.65-.69v-4.31c0-.55,0-.61-.62-.68v-.23a6.56,6.56,0,0,0,1.33-.31v5.53c0,.59.06.64.64.69v.25Z"/><path class="cls-1" d="M58.44,109.39a9.79,9.79,0,0,0-1.4.33v-.58l-.56.32a1.58,1.58,0,0,1-.71.26,1.87,1.87,0,0,1-1.67-2,2.26,2.26,0,0,1,2.33-2.18,1.8,1.8,0,0,1,.61.09v-1.32c0-.58-.06-.59-.7-.65v-.23a8.23,8.23,0,0,0,1.41-.31v5.43c0,.47.07.53.4.55l.29,0Zm-1.4-3a1.13,1.13,0,0,0-.94-.45c-.44,0-1.2.28-1.2,1.58,0,1.09.67,1.67,1.25,1.67a1.62,1.62,0,0,0,.89-.32Z"/><path class="cls-1" d="M64.81,109.61v-.25c.53,0,.59-.09.59-.72v-1.5c0-.64-.21-1-.77-1a1.64,1.64,0,0,0-1,.47,3.46,3.46,0,0,1,0,.39v1.75c0,.56.08.61.57.66v.25H62.31v-.25c.55,0,.64-.09.64-.68v-1.55c0-.67-.21-1-.76-1a1.76,1.76,0,0,0-1,.47v2.12c0,.59.06.63.58.68v.25H59.84v-.25c.59,0,.65-.09.65-.68v-1.87c0-.57,0-.61-.54-.7v-.22a5.22,5.22,0,0,0,1.25-.36v.73a5.41,5.41,0,0,1,.67-.47,1.23,1.23,0,0,1,.71-.23,1,1,0,0,1,1,.73,8.55,8.55,0,0,1,.71-.5,1.33,1.33,0,0,1,.71-.23c.7,0,1.13.5,1.13,1.38v1.74c0,.6.06.63.57.68v.25Z"/><path class="cls-1" d="M69.56,109.72a.63.63,0,0,1-.42-.17.88.88,0,0,1-.22-.4,2.84,2.84,0,0,1-1.08.57,1.1,1.1,0,0,1-1.1-1.1.92.92,0,0,1,.74-.9,7,7,0,0,0,1.42-.59V107c0-.64-.32-1-.79-1a.51.51,0,0,0-.42.21,2,2,0,0,0-.25.58.24.24,0,0,1-.26.21.43.43,0,0,1-.39-.39c0-.13.12-.24.29-.37a3.94,3.94,0,0,1,1.3-.62,1.27,1.27,0,0,1,.76.24,1.25,1.25,0,0,1,.46,1v1.74c0,.41.15.54.31.54a.79.79,0,0,0,.33-.1l.09.25Zm-.66-2.27-.83.37c-.35.16-.55.33-.55.66a.65.65,0,0,0,.65.69,1.18,1.18,0,0,0,.73-.32Z"/><path class="cls-1" d="M74.53,109.61l-1.21,0c0-.06-1.46-1.73-1.52-1.79s-.18-.19-.26-.19a.47.47,0,0,0-.16,0v1c0,.6,0,.64.63.69v.25H70v-.25c.6,0,.65-.11.65-.69v-4.3c0-.59-.07-.61-.62-.69v-.23a5.79,5.79,0,0,0,1.33-.31v4.3a1,1,0,0,0,.57-.32,6.78,6.78,0,0,0,.7-.84c.19-.26.11-.33-.32-.37v-.25l1.86-.08v.24a1.65,1.65,0,0,0-1.2.58c-.17.18-.58.64-.77.87.19.26,1.1,1.3,1.4,1.62s.56.45.91.47Z"/><path class="cls-1" d="M77.35,108.85a2,2,0,0,1-1.49.87,1.79,1.79,0,0,1-1.76-1.93,2.31,2.31,0,0,1,.58-1.58,1.85,1.85,0,0,1,1.34-.65A1.4,1.4,0,0,1,77.4,107c0,.18,0,.26-.18.3s-1.33.11-2.4.15c0,1.21.71,1.7,1.35,1.7a1.49,1.49,0,0,0,1-.46Zm-1.54-2.95c-.42,0-.82.38-1,1.11.5,0,1,0,1.54,0,.16,0,.22,0,.22-.18A.84.84,0,0,0,75.81,105.9Z"/><path class="cls-1" d="M78.86,105.85a5.23,5.23,0,0,0,1.3-.39v.72l.79-.45a1.28,1.28,0,0,1,.52-.17,1.61,1.61,0,0,1,1.59,1.71,2.55,2.55,0,0,1-2.26,2.45,1.56,1.56,0,0,1-.64-.16v1.22c0,.66.07.72.77.78v.25H78.79v-.25c.59-.06.66-.11.66-.71v-4.1c0-.54,0-.57-.59-.66Zm1.3,3.08a1.3,1.3,0,0,0,.86.35c.78,0,1.28-.66,1.28-1.66s-.56-1.53-1.2-1.53a1.82,1.82,0,0,0-.94.39Z"/><path class="cls-1" d="M86.52,108.85a2.06,2.06,0,0,1-1.5.87,1.79,1.79,0,0,1-1.76-1.93,2.31,2.31,0,0,1,.58-1.58,1.86,1.86,0,0,1,1.34-.65A1.4,1.4,0,0,1,86.56,107c0,.18,0,.26-.18.3s-1.33.11-2.4.15c0,1.21.71,1.7,1.35,1.7a1.49,1.49,0,0,0,1-.46ZM85,105.9c-.42,0-.82.38-1,1.11.51,0,1,0,1.54,0,.16,0,.22,0,.22-.18A.84.84,0,0,0,85,105.9Z"/><path class="cls-1" d="M88.68,105.56a1.93,1.93,0,0,1,2,2,2,2,0,0,1-2,2.15,2,2,0,0,1-2-2A2.06,2.06,0,0,1,88.68,105.56Zm-.11.3c-.55,0-1,.53-1,1.58s.51,2,1.25,2c.55,0,1-.41,1-1.64C89.79,106.72,89.36,105.86,88.57,105.86Z"/><path class="cls-1" d="M90.65,105.85a5.23,5.23,0,0,0,1.3-.39v.72l.79-.45a1.28,1.28,0,0,1,.52-.17,1.61,1.61,0,0,1,1.59,1.71,2.55,2.55,0,0,1-2.26,2.45,1.56,1.56,0,0,1-.64-.16v1.22c0,.66.07.72.77.78v.25H90.58v-.25c.59-.06.66-.11.66-.71v-4.1c0-.54,0-.57-.59-.66Zm1.3,3.08a1.3,1.3,0,0,0,.86.35c.78,0,1.28-.66,1.28-1.66s-.56-1.53-1.2-1.53a1.79,1.79,0,0,0-.94.39Z"/><path class="cls-1" d="M94.83,109.61v-.25c.58,0,.65-.1.65-.69v-4.31c0-.55,0-.61-.62-.68v-.23a6.73,6.73,0,0,0,1.33-.31v5.53c0,.59.06.64.64.69v.25Z"/><path class="cls-1" d="M100,108.85a2,2,0,0,1-1.49.87,1.79,1.79,0,0,1-1.76-1.93,2.31,2.31,0,0,1,.58-1.58,1.85,1.85,0,0,1,1.34-.65,1.4,1.4,0,0,1,1.38,1.39c0,.18,0,.26-.18.3s-1.33.11-2.4.15c0,1.21.71,1.7,1.35,1.7a1.49,1.49,0,0,0,1-.46Zm-1.54-2.95c-.42,0-.82.38-1,1.11.51,0,1,0,1.54,0,.16,0,.22,0,.22-.18A.84.84,0,0,0,98.48,105.9Z"/><path class="cls-1" d="M102.23,105.66v-.24a2.29,2.29,0,0,1,.79-1.8,1.93,1.93,0,0,1,1-.48,1,1,0,0,1,.73.29.27.27,0,0,1,0,.31.64.64,0,0,1-.21.29.2.2,0,0,1-.26,0,1.15,1.15,0,0,0-.73-.37c-.67,0-.67.91-.67,1.59v.42h1a.35.35,0,0,1-.1.37h-.86v2.6c0,.65.1.66.77.73v.25H101.6v-.25c.57,0,.63-.09.63-.67V106h-.64l0-.1.2-.27Z"/><path class="cls-1" d="M107,108.85a2.06,2.06,0,0,1-1.5.87,1.79,1.79,0,0,1-1.76-1.93,2.31,2.31,0,0,1,.58-1.58,1.85,1.85,0,0,1,1.34-.65A1.4,1.4,0,0,1,107,107c0,.18,0,.26-.18.3s-1.33.11-2.4.15c0,1.21.71,1.7,1.35,1.7a1.49,1.49,0,0,0,1-.46Zm-1.55-2.95c-.42,0-.82.38-1,1.11.51,0,1,0,1.54,0,.16,0,.22,0,.22-.18A.84.84,0,0,0,105.41,105.9Z"/><path class="cls-1" d="M110.37,108.85a2,2,0,0,1-1.49.87,1.79,1.79,0,0,1-1.76-1.93,2.31,2.31,0,0,1,.58-1.58,1.85,1.85,0,0,1,1.34-.65,1.4,1.4,0,0,1,1.38,1.39c0,.18,0,.26-.18.3s-1.33.11-2.4.15c0,1.21.71,1.7,1.35,1.7a1.49,1.49,0,0,0,1-.46Zm-1.54-2.95c-.42,0-.82.38-1,1.11.5,0,1,0,1.54,0,.16,0,.22,0,.22-.18A.84.84,0,0,0,108.83,105.9Z"/><path class="cls-1" d="M110.27,109.61v-.25c.58,0,.65-.1.65-.69v-4.31c0-.55,0-.61-.62-.68v-.23a6.4,6.4,0,0,0,1.33-.31v5.53c0,.59.06.64.64.69v.25Z"/><path class="cls-1" d="M114.42,103.44a5.6,5.6,0,0,0,1.11-.23.87.87,0,0,1,.25-.07c.07,0,.09.09,0,.3-.25,1.15-.58,2.58-.83,3.73a3.51,3.51,0,0,1,2.19-1.61c.3,0,.59.14.31,1.28-.12.56-.29,1.32-.44,1.88-.06.25,0,.34,0,.34s.3-.1.62-.44l.13.21a2,2,0,0,1-1.28.89c-.25,0-.34-.28-.18-.91s.35-1.43.49-2,.06-.65-.12-.65c-.34,0-1,.43-1.61,1.42a2,2,0,0,0-.33.76c-.08.36-.2.89-.27,1.24-.21,0-.45.11-.65.17l-.06-.06c.39-1.74.86-3.93,1.17-5.55.07-.37,0-.37-.25-.4l-.37,0Z"/><path class="cls-1" d="M119.38,109.72c-.43,0-1-.25-1-1.34a3,3,0,0,1,1.07-2.36,2.13,2.13,0,0,1,1.21-.46.71.71,0,0,1,.8.71c0,.9-1.32,1.33-2.33,1.51,0,.11,0,.29,0,.38,0,.52.15,1,.71,1a2,2,0,0,0,1.33-.71l.13.23A2.53,2.53,0,0,1,119.38,109.72Zm-.22-2.24c1.3-.23,1.61-.65,1.62-1.06a.43.43,0,0,0-.47-.48C120,105.94,119.42,106.14,119.16,107.48Z"/><path class="cls-1" d="M123.3,108.8a2.19,2.19,0,0,1-1.31.92c-.22,0-.36-.18-.18-1,.33-1.54.68-3.17,1-4.56.07-.36,0-.39-.28-.42l-.34,0,.06-.23a6.58,6.58,0,0,0,1.1-.23.72.72,0,0,1,.27-.07c.08,0,.08.08,0,.29-.4,1.73-.84,3.78-1.14,5.28-.06.26,0,.34,0,.34a1.38,1.38,0,0,0,.65-.48Z"/><path class="cls-1" d="M125.3,105.66a3.4,3.4,0,0,1,.82-.1c.95,0,1.31.44,1.31,1.23a2.9,2.9,0,0,1-.77,1.89,3.5,3.5,0,0,1-1.68,1,1.46,1.46,0,0,1-.52-.09l-.25,1.27c-.1.51-.07.6.37.63l.26,0,0,.23-2.12.11,0-.23c.61-.11.68-.18.79-.73.34-1.58.69-3.17,1-4.72a6.32,6.32,0,0,0-.73.33l-.06-.25a5.48,5.48,0,0,1,.87-.45l.1-.41a2.37,2.37,0,0,1,.67-.52l.08,0Zm-.7,3.35a.71.71,0,0,0,.55.3c.64,0,1.52-1.21,1.52-2.36,0-.79-.42-1-1-1a2.4,2.4,0,0,0-.5.07C125,106.91,124.79,108.11,124.6,109Z"/><path class="cls-1" d="M128.91,109.72c-.43,0-1-.25-1-1.34A3,3,0,0,1,129,106a2.16,2.16,0,0,1,1.21-.46.71.71,0,0,1,.8.71c0,.9-1.32,1.33-2.33,1.51,0,.11,0,.29,0,.38,0,.52.15,1,.71,1a2,2,0,0,0,1.33-.71l.13.23A2.52,2.52,0,0,1,128.91,109.72Zm-.22-2.24c1.3-.23,1.61-.65,1.62-1.06a.43.43,0,0,0-.47-.48C129.57,105.94,129,106.14,128.69,107.48Z"/><path class="cls-1" d="M135.3,108.83a2.13,2.13,0,0,1-1.26.9c-.26,0-.37-.21-.19-1.07l.1-.5c-.52.76-1.36,1.57-2,1.57-.35,0-.69-.31-.69-1.16a3.26,3.26,0,0,1,1.06-2.37,2.79,2.79,0,0,1,1.5-.64,1.61,1.61,0,0,1,.66.12l.31-1.55c.07-.36,0-.39-.32-.42l-.34,0,.05-.24a6.42,6.42,0,0,0,1.14-.24,2.45,2.45,0,0,1,.26-.06c.08,0,.09.08,0,.27-.42,1.77-.84,3.65-1.14,5.31-.05.25,0,.34,0,.34s.33-.13.66-.47Zm-1.54-.86a2.45,2.45,0,0,0,.42-1l.18-.77a1.16,1.16,0,0,0-.86-.28c-1,0-1.48,1.49-1.48,2.41,0,.51.13.77.38.77S133.3,108.63,133.76,108Z"/><path class="cls-1" d="M135.22,110.38c.39-.14.91-.4.91-.86,0-.25-.21-.36-.4-.44a.14.14,0,0,1-.12-.15.5.5,0,0,1,.52-.48.7.7,0,0,1,.6.75c0,.79-.71,1.27-1.43,1.46Z"/><path class="cls-1" d="M16.82,121.72a.66.66,0,0,1-.42-.17.88.88,0,0,1-.22-.4,2.84,2.84,0,0,1-1.08.57,1.1,1.1,0,0,1-1.1-1.1.92.92,0,0,1,.74-.9,7,7,0,0,0,1.42-.59V119c0-.64-.32-1-.79-1a.52.52,0,0,0-.42.21,1.8,1.8,0,0,0-.24.58.26.26,0,0,1-.27.21.43.43,0,0,1-.39-.39c0-.13.12-.24.3-.37a3.78,3.78,0,0,1,1.29-.62,1.27,1.27,0,0,1,.76.24,1.25,1.25,0,0,1,.46,1v1.74c0,.41.15.54.31.54a.79.79,0,0,0,.33-.1l.09.25Zm-.66-2.27-.83.37c-.34.16-.55.33-.55.66a.65.65,0,0,0,.65.69,1.18,1.18,0,0,0,.73-.32Z"/><path class="cls-1" d="M19.69,118.73c-.16-.52-.39-.88-.94-.88a.55.55,0,0,0-.56.59c0,.38.26.56.76.8.78.37,1.17.64,1.17,1.23a1.34,1.34,0,0,1-1.47,1.25,2.32,2.32,0,0,1-1.07-.25c0-.26-.13-.76-.16-1l.26,0c.16.58.47,1,1.1,1a.6.6,0,0,0,.63-.61c0-.41-.24-.62-.72-.85-.63-.31-1.14-.6-1.14-1.24a1.24,1.24,0,0,1,1.4-1.16,5.55,5.55,0,0,1,.87.11c0,.22.09.78.13,1Z"/><path class="cls-1" d="M27.21,120.17a10.78,10.78,0,0,1-.5,1.36,7.67,7.67,0,0,1-1.64.22,3,3,0,0,1-3.25-3,3.11,3.11,0,0,1,3.41-3.1,9.92,9.92,0,0,1,1.7.2c0,.41.1,1,.17,1.4l-.28.06a1.57,1.57,0,0,0-.85-1.16A2.48,2.48,0,0,0,25,116c-1.48,0-2.27,1.1-2.27,2.58,0,1.74.9,2.86,2.36,2.86.92,0,1.37-.43,1.83-1.33Z"/><path class="cls-1" d="M29.9,121.61v-.25c.52,0,.59-.1.59-.69v-1.48c0-.74-.29-1.12-.89-1.11a1.27,1.27,0,0,0-1,.47v2.12c0,.58.07.64.61.69v.25h-2v-.25c.52,0,.64-.09.64-.69v-4.34c0-.48,0-.59-.63-.65v-.23a5.76,5.76,0,0,0,1.34-.31v3.07a2,2,0,0,1,1.3-.65c.74,0,1.25.45,1.25,1.53v1.59c0,.59.08.64.6.68v.25Z"/><path class="cls-1" d="M33.83,121.61H31.76v-.25c.57,0,.62-.1.62-.68v-1.87c0-.6,0-.63-.56-.69v-.22a5.27,5.27,0,0,0,1.27-.37v1c.32-.47.7-1,1.15-1a.46.46,0,0,1,.52.43.61.61,0,0,1-.31.49.16.16,0,0,1-.23,0,.58.58,0,0,0-.41-.22c-.19,0-.52.28-.72.74v1.69c0,.59,0,.64.74.69Z"/><path class="cls-1" d="M34.62,121.61v-.25c.57,0,.63-.1.63-.71V118.8c0-.56,0-.6-.56-.69v-.21a6.52,6.52,0,0,0,1.27-.36v3.11c0,.61.07.66.65.71v.25Zm.94-5a.49.49,0,1,1,0-1,.49.49,0,0,1,0,1Z"/><path class="cls-1" d="M38.82,118.73c-.16-.52-.4-.88-1-.88a.55.55,0,0,0-.56.59c0,.38.26.56.77.8.77.37,1.16.64,1.16,1.23a1.34,1.34,0,0,1-1.47,1.25,2.32,2.32,0,0,1-1.07-.25c0-.26-.12-.76-.16-1l.26,0c.16.58.48,1,1.11,1a.6.6,0,0,0,.63-.61c0-.41-.25-.62-.72-.85-.63-.31-1.15-.6-1.15-1.24s.56-1.16,1.41-1.16a5.39,5.39,0,0,1,.86.11c0,.22.09.78.14,1Z"/><path class="cls-1" d="M41,121.61a.89.89,0,0,1-.39.11c-.57,0-.88-.35-.88-1.07V118h-.62l0-.11.24-.26h.42v-.75l.6-.6.14,0c0,.38,0,.9,0,1.33h1a.28.28,0,0,1-.06.37h-1v2.31c0,.72.29.86.52.86a1.3,1.3,0,0,0,.55-.14l.08.23Z"/><path class="cls-1" d="M43.27,117.56a1.93,1.93,0,0,1,2,2,2,2,0,0,1-2,2.15,2,2,0,0,1-2-2A2.06,2.06,0,0,1,43.27,117.56Zm-.11.3c-.55,0-1,.53-1,1.58s.5,2,1.24,2c.56,0,1-.41,1-1.64C44.39,118.72,44,117.86,43.16,117.86Z"/><path class="cls-1" d="M45.24,117.85a5.3,5.3,0,0,0,1.31-.39v.72l.78-.45a1.38,1.38,0,0,1,.52-.17,1.62,1.62,0,0,1,1.6,1.71,2.55,2.55,0,0,1-2.26,2.45,1.52,1.52,0,0,1-.64-.16v1.22c0,.66.07.72.76.78v.25H45.18v-.25c.58-.06.66-.11.66-.71v-4.1c0-.54,0-.57-.6-.66Zm1.31,3.08a1.28,1.28,0,0,0,.85.35c.79,0,1.29-.66,1.29-1.66s-.57-1.53-1.21-1.53a1.79,1.79,0,0,0-.93.39Z"/><path class="cls-1" d="M52,121.61v-.25c.52,0,.59-.1.59-.69v-1.48c0-.74-.29-1.12-.89-1.11a1.27,1.27,0,0,0-1,.47v2.12c0,.58.07.64.61.69v.25h-2v-.25c.52,0,.64-.09.64-.69v-4.34c0-.48,0-.59-.63-.65v-.23a5.76,5.76,0,0,0,1.34-.31v3.07a2,2,0,0,1,1.3-.65c.74,0,1.25.45,1.25,1.53v1.59c0,.59.08.64.6.68v.25Z"/><path class="cls-1" d="M57.17,120.85a2.06,2.06,0,0,1-1.5.87,1.8,1.8,0,0,1-1.76-1.93,2.31,2.31,0,0,1,.58-1.58,1.87,1.87,0,0,1,1.35-.65A1.4,1.4,0,0,1,57.21,119c0,.18,0,.26-.18.3s-1.33.11-2.4.15c0,1.21.71,1.7,1.35,1.7a1.49,1.49,0,0,0,1-.46Zm-1.55-2.95c-.41,0-.82.38-.95,1.11.51,0,1,0,1.54,0,.17,0,.22,0,.22-.18A.84.84,0,0,0,55.62,117.9Z"/><path class="cls-1" d="M59.27,121.61H57.2v-.25c.57,0,.62-.1.62-.68v-1.87c0-.6,0-.63-.55-.69v-.22a5.4,5.4,0,0,0,1.27-.37v1c.31-.47.69-1,1.14-1a.46.46,0,0,1,.52.43.59.59,0,0,1-.31.49.16.16,0,0,1-.23,0,.56.56,0,0,0-.4-.22c-.19,0-.53.28-.72.74v1.69c0,.59,0,.64.73.69Z"/><path class="cls-1" d="M64.69,121.61v-.25c.59-.07.66-.16.53-.5s-.29-.8-.48-1.37H62.79c-.14.41-.28.76-.4,1.13-.2.58-.07.65.66.74v.25H61v-.25c.57-.07.71-.13,1-.94l1.86-4.73.29,0c.57,1.54,1.19,3.24,1.76,4.8.29.78.37.85,1,.92v.25Zm-.9-4.79c-.29.77-.59,1.59-.86,2.3h1.68Z"/><path class="cls-1" d="M66.65,121.61v-.25c.58,0,.65-.1.65-.69v-4.31c0-.55,0-.61-.62-.68v-.23a6.56,6.56,0,0,0,1.33-.31v5.53c0,.59.06.64.64.69v.25Z"/><path class="cls-1" d="M71.85,120.85a2.06,2.06,0,0,1-1.5.87,1.79,1.79,0,0,1-1.76-1.93,2.31,2.31,0,0,1,.58-1.58,1.86,1.86,0,0,1,1.34-.65A1.4,1.4,0,0,1,71.89,119c0,.18,0,.26-.18.3s-1.33.11-2.4.15c0,1.21.71,1.7,1.35,1.7a1.49,1.49,0,0,0,1-.46ZM70.3,117.9c-.42,0-.82.38-1,1.11.51,0,1,0,1.54,0,.16,0,.22,0,.22-.18A.84.84,0,0,0,70.3,117.9Z"/><path class="cls-1" d="M74,121.61v-.25c.39,0,.47-.11.32-.35L73.61,120c-.2.32-.4.64-.58,1s-.15.39.32.45v.25h-1.7v-.25a1.14,1.14,0,0,0,1-.57c.25-.35.48-.71.75-1.11l-.77-1.22a.91.91,0,0,0-.89-.55v-.25h1.81v.25c-.37,0-.41.12-.25.38l.54.82c.17-.26.35-.56.52-.84s.09-.32-.29-.36v-.25h1.64v.25a1.17,1.17,0,0,0-1,.55c-.13.18-.34.47-.64.92l.87,1.33c.34.5.44.58,1,.65v.25Z"/><path class="cls-1" d="M78.59,121.72a.66.66,0,0,1-.43-.17.86.86,0,0,1-.21-.4,2.84,2.84,0,0,1-1.08.57,1.1,1.1,0,0,1-1.1-1.1.91.91,0,0,1,.74-.9,7.22,7.22,0,0,0,1.42-.59V119c0-.64-.32-1-.79-1a.53.53,0,0,0-.43.21,2.06,2.06,0,0,0-.24.58.24.24,0,0,1-.26.21.44.44,0,0,1-.4-.39c0-.13.12-.24.3-.37a3.84,3.84,0,0,1,1.3-.62,1.18,1.18,0,0,1,1.21,1.28v1.74c0,.41.16.54.32.54a.75.75,0,0,0,.32-.1l.09.25Zm-.66-2.27-.84.37c-.34.16-.55.33-.55.66a.65.65,0,0,0,.65.69,1.18,1.18,0,0,0,.74-.32Z"/><path class="cls-1" d="M81.76,121.61v-.25c.53,0,.58-.11.58-.73v-1.48c0-.63-.22-1.06-.82-1.06a1.59,1.59,0,0,0-1,.47v2.11c0,.62.06.64.59.69v.25h-2v-.25c.6-.06.65-.1.65-.69v-1.86c0-.58-.06-.61-.55-.69v-.23a5.57,5.57,0,0,0,1.26-.36v.71l.61-.42a1.41,1.41,0,0,1,.75-.26c.72,0,1.17.53,1.17,1.4v1.71c0,.61.06.64.58.69v.25Z"/><path class="cls-1" d="M88,121.39a9.79,9.79,0,0,0-1.4.33v-.58l-.56.32a1.58,1.58,0,0,1-.71.26,1.87,1.87,0,0,1-1.67-2A2.26,2.26,0,0,1,86,117.56a1.8,1.8,0,0,1,.61.09v-1.32c0-.58-.06-.59-.7-.65v-.23a8.23,8.23,0,0,0,1.41-.31v5.43c0,.47.06.53.4.55l.29,0Zm-1.4-3a1.13,1.13,0,0,0-.94-.45c-.44,0-1.2.28-1.2,1.58,0,1.09.67,1.67,1.25,1.67a1.65,1.65,0,0,0,.89-.32Z"/><path class="cls-1" d="M91.11,120.85a2.06,2.06,0,0,1-1.5.87,1.79,1.79,0,0,1-1.76-1.93,2.31,2.31,0,0,1,.58-1.58,1.86,1.86,0,0,1,1.34-.65A1.4,1.4,0,0,1,91.15,119c0,.18,0,.26-.18.3s-1.33.11-2.4.15c0,1.21.71,1.7,1.35,1.7a1.49,1.49,0,0,0,1-.46Zm-1.55-2.95c-.42,0-.82.38-1,1.11.51,0,1,0,1.54,0,.16,0,.22,0,.22-.18A.84.84,0,0,0,89.56,117.9Z"/><path class="cls-1" d="M93.21,121.61H91.14v-.25c.57,0,.62-.1.62-.68v-1.87c0-.6,0-.63-.56-.69v-.22a5.14,5.14,0,0,0,1.27-.37v1c.32-.47.7-1,1.15-1a.46.46,0,0,1,.52.43.59.59,0,0,1-.31.49.16.16,0,0,1-.23,0,.58.58,0,0,0-.41-.22c-.19,0-.52.28-.72.74v1.69c0,.59,0,.64.74.69Z"/><path class="cls-1" d="M97.84,118.73c-.16-.52-.4-.88-1-.88a.55.55,0,0,0-.56.59c0,.38.26.56.77.8.77.37,1.16.64,1.16,1.23a1.34,1.34,0,0,1-1.47,1.25,2.36,2.36,0,0,1-1.07-.25c0-.26-.12-.76-.16-1l.26,0c.16.58.48,1,1.11,1a.6.6,0,0,0,.63-.61c0-.41-.24-.62-.72-.85-.63-.31-1.14-.6-1.14-1.24a1.24,1.24,0,0,1,1.4-1.16,5.39,5.39,0,0,1,.86.11c0,.22.09.78.14,1Z"/><path class="cls-1" d="M102.58,121.41a10.81,10.81,0,0,0-1.38.31V121a2.22,2.22,0,0,1-1.37.69c-.61,0-1.13-.37-1.13-1.35v-1.74c0-.49-.07-.54-.3-.59l-.25,0v-.24c.39,0,1-.11,1.29-.16,0,.29,0,.72,0,1.31v1.23c0,.79.42,1,.82,1a1.41,1.41,0,0,0,1-.44v-2.09c0-.49-.1-.55-.41-.6l-.29,0v-.24a12.77,12.77,0,0,0,1.42-.16v3c0,.44.07.51.41.53h.25Z"/><path class="cls-1" d="M103.63,120.3a.66.66,0,0,0-.29.45c0,.16.15.34.55.34h1c.58,0,1.32.19,1.32,1.08a2.21,2.21,0,0,1-2.31,1.82c-1,0-1.56-.59-1.58-1.12a.74.74,0,0,1,.22-.52,7.55,7.55,0,0,1,.74-.64,1.15,1.15,0,0,1-.67-.49.86.86,0,0,1-.11-.39,1.9,1.9,0,0,0,.83-.62Zm.44.09a1.39,1.39,0,0,1-1.53-1.36,1.54,1.54,0,0,1,1.62-1.5,1.89,1.89,0,0,1,.86.22,6.49,6.49,0,0,0,1.21-.13l0,.08a1.22,1.22,0,0,1-.33.48c-.14,0-.44,0-.56-.05a1.43,1.43,0,0,1,.26.82A1.46,1.46,0,0,1,104.07,120.39Zm.2,1.33a1.16,1.16,0,0,0-.8.19,1.05,1.05,0,0,0-.43.74c0,.5.51.86,1.21.86s1.34-.44,1.34-1a.68.68,0,0,0-.4-.66A2.38,2.38,0,0,0,104.27,121.72Zm-.2-3.91c-.41,0-.77.37-.77,1.09s.36,1.2.86,1.2.74-.35.74-1.08S104.57,117.81,104.07,117.81Z"/><path class="cls-1" d="M107.37,120.3a.65.65,0,0,0-.3.45c0,.16.15.34.56.34h1c.57,0,1.31.19,1.31,1.08a2.21,2.21,0,0,1-2.3,1.82c-1,0-1.57-.59-1.59-1.12a.71.71,0,0,1,.23-.52,7.55,7.55,0,0,1,.74-.64,1.18,1.18,0,0,1-.68-.49.86.86,0,0,1-.11-.39,1.9,1.9,0,0,0,.83-.62Zm.43.09a1.39,1.39,0,0,1-1.53-1.36,1.55,1.55,0,0,1,1.62-1.5,1.86,1.86,0,0,1,.86.22,6.3,6.3,0,0,0,1.21-.13l.05.08a1.12,1.12,0,0,1-.33.48c-.13,0-.43,0-.56-.05a1.36,1.36,0,0,1,.26.82A1.45,1.45,0,0,1,107.8,120.39Zm.21,1.33a1.16,1.16,0,0,0-.8.19,1,1,0,0,0-.44.74c0,.5.52.86,1.21.86.85,0,1.34-.44,1.34-1a.68.68,0,0,0-.39-.66A2.41,2.41,0,0,0,108,121.72Zm-.21-3.91c-.4,0-.76.37-.76,1.09s.36,1.2.85,1.2.75-.35.75-1.08S108.3,117.81,107.8,117.81Z"/><path class="cls-1" d="M113,120.85a2,2,0,0,1-1.49.87,1.79,1.79,0,0,1-1.76-1.93,2.31,2.31,0,0,1,.58-1.58,1.85,1.85,0,0,1,1.34-.65A1.4,1.4,0,0,1,113,119c0,.18,0,.26-.18.3s-1.33.11-2.4.15c0,1.21.71,1.7,1.35,1.7a1.51,1.51,0,0,0,1-.46Zm-1.54-2.95c-.42,0-.82.38-1,1.11.5,0,1,0,1.54,0,.16,0,.22,0,.22-.18A.84.84,0,0,0,111.45,117.9Z"/><path class="cls-1" d="M115.38,118.73c-.16-.52-.4-.88-.95-.88a.55.55,0,0,0-.55.59c0,.38.26.56.76.8.78.37,1.16.64,1.16,1.23a1.34,1.34,0,0,1-1.47,1.25,2.36,2.36,0,0,1-1.07-.25c0-.26-.12-.76-.16-1l.26,0c.16.58.48,1,1.11,1a.6.6,0,0,0,.63-.61c0-.41-.24-.62-.72-.85s-1.14-.6-1.14-1.24a1.24,1.24,0,0,1,1.4-1.16,5.23,5.23,0,0,1,.86.11c0,.22.09.78.14,1Z"/><path class="cls-1" d="M117.52,121.61a.89.89,0,0,1-.39.11c-.57,0-.88-.35-.88-1.07V118h-.62l0-.11.25-.26h.41v-.75c.17-.18.43-.42.6-.6l.14,0c0,.38,0,.9,0,1.33h1a.28.28,0,0,1-.06.37h-1v2.31c0,.72.29.86.52.86a1.3,1.3,0,0,0,.55-.14l.08.23Z"/><path class="cls-1" d="M121.09,120.85a2,2,0,0,1-1.49.87,1.8,1.8,0,0,1-1.77-1.93,2.32,2.32,0,0,1,.59-1.58,1.85,1.85,0,0,1,1.34-.65,1.4,1.4,0,0,1,1.38,1.39c0,.18,0,.26-.18.3s-1.33.11-2.4.15c0,1.21.71,1.7,1.35,1.7a1.51,1.51,0,0,0,1-.46Zm-1.54-2.95c-.42,0-.82.38-1,1.11.5,0,1,0,1.54,0,.16,0,.22,0,.22-.18A.84.84,0,0,0,119.55,117.9Z"/><path class="cls-1" d="M125.59,121.39a10.06,10.06,0,0,0-1.39.33v-.58l-.56.32a1.58,1.58,0,0,1-.71.26,1.88,1.88,0,0,1-1.68-2,2.27,2.27,0,0,1,2.34-2.18,1.83,1.83,0,0,1,.61.09v-1.32c0-.58-.06-.59-.7-.65v-.23a8.23,8.23,0,0,0,1.41-.31v5.43c0,.47.06.53.4.55l.28,0Zm-1.39-3a1.15,1.15,0,0,0-1-.45c-.43,0-1.19.28-1.19,1.58,0,1.09.67,1.67,1.25,1.67a1.65,1.65,0,0,0,.89-.32Z"/><path class="cls-1" d="M125.7,122.42c.41-.18.72-.43.72-.77s-.26-.4-.58-.49c0,0-.14-.11-.14-.27a.46.46,0,0,1,.5-.45.85.85,0,0,1,.77,1,1.47,1.47,0,0,1-1.15,1.3Z"/><path class="cls-1" d="M5.88,142.15a2.31,2.31,0,0,1-2.1,2.54,1.41,1.41,0,0,1-1.47-1.6c0-1.13.68-2.58,2.1-2.58A1.44,1.44,0,0,1,5.88,142.15Zm-3,.93c0,.72.35,1.17,1,1.17,1,0,1.51-1.19,1.51-2.09,0-.74-.32-1.2-1-1.2C3.35,141,2.83,142.14,2.83,143.08Z"/><path class="cls-1" d="M7,141.61c.07-.35.14-.69.2-1h.5c0,.13-.11.65-.14.76a1.52,1.52,0,0,1,1.4-.84c.76,0,1.25.43,1,1.56l-.53,2.54H9l.52-2.51c.15-.67,0-1.12-.68-1.12-.83,0-1.3.8-1.48,1.65l-.42,2H6.39Z"/><path class="cls-1" d="M13.08,140.59h.7L14,139.4h.5l-.25,1.19h.89l-.09.44h-.9l-.54,2.59c-.09.41-.07.59.29.59a2.08,2.08,0,0,0,.42,0l-.11.42a1.47,1.47,0,0,1-.5.07c-.55,0-.78-.24-.64-.9l.58-2.74H13Z"/><path class="cls-1" d="M16.82,138.73l-.54,2.56a1.59,1.59,0,0,1,1.39-.78c.55,0,1.28.27,1,1.51l-.55,2.59h-.5l.52-2.5c.16-.74,0-1.13-.66-1.13a1.59,1.59,0,0,0-1.45,1.44l-.47,2.19h-.51l1.25-5.88Z"/><path class="cls-1" d="M20.05,142.65a3.59,3.59,0,0,0,0,.44c0,.77.39,1.16,1,1.16a1.23,1.23,0,0,0,1.15-.73h.53a1.77,1.77,0,0,1-1.74,1.17c-1,0-1.43-.66-1.43-1.57,0-1.16.63-2.61,2.08-2.61a1.27,1.27,0,0,1,1.37,1.4,2.65,2.65,0,0,1-.1.74Zm2.38-.42a2,2,0,0,0,0-.34.82.82,0,0,0-.92-.94c-.66,0-1.16.46-1.39,1.28Z"/><path class="cls-1" d="M25.83,143.42a.91.91,0,0,0,1,.84c.58,0,.91-.3.91-.73s-.28-.61-.88-.84c-.84-.31-1.09-.6-1.09-1.06s.44-1.12,1.37-1.12,1.37.59,1.36,1.14H28c0-.3-.17-.71-.9-.71-.48,0-.8.25-.8.64s.24.46.84.69c.81.3,1.16.63,1.16,1.19,0,.76-.58,1.23-1.54,1.23s-1.45-.55-1.46-1.27Z"/><path class="cls-1" d="M32.08,143.61c-.06.31-.16.83-.19,1h-.5c0-.15.07-.42.13-.68a1.5,1.5,0,0,1-1.42.76,1,1,0,0,1-1.1-1c0-1.16,1.11-1.39,1.88-1.46.45,0,.83,0,1,0l.06-.3c.08-.41,0-.94-.8-.94a1,1,0,0,0-1.1.73h-.52a1.52,1.52,0,0,1,1.67-1.16c.9,0,1.45.42,1.25,1.35Zm-.27-1c-.2,0-.48,0-.88,0-.67.06-1.39.23-1.39,1a.63.63,0,0,0,.71.62c.93,0,1.34-.72,1.54-1.59Z"/><path class="cls-1" d="M33.75,141.72c.08-.38.15-.73.22-1.13h.5c0,.11-.07.47-.12.68a1.39,1.39,0,0,1,1.24-.76.82.82,0,0,1,.94.77,1.56,1.56,0,0,1,1.35-.77c.65,0,1.19.39.95,1.5l-.54,2.6h-.51l.54-2.55c.11-.5.1-1.08-.61-1.08s-1.11.63-1.26,1.33l-.49,2.3h-.5l.52-2.44c.16-.71.08-1.19-.56-1.19s-1.16.69-1.31,1.42l-.47,2.21h-.5Z"/><path class="cls-1" d="M40.21,142.65a3.59,3.59,0,0,0,0,.44c0,.77.38,1.16,1,1.16a1.23,1.23,0,0,0,1.15-.73h.53a1.77,1.77,0,0,1-1.75,1.17c-1,0-1.42-.66-1.42-1.57,0-1.16.63-2.61,2.07-2.61a1.27,1.27,0,0,1,1.38,1.4,2.65,2.65,0,0,1-.1.74Zm2.38-.42a2,2,0,0,0,0-.34.82.82,0,0,0-.92-.94c-.66,0-1.16.46-1.39,1.28Z"/><path class="cls-1" d="M45.63,144.61l1.25-5.88h.5l-1.24,5.88Z"/><path class="cls-1" d="M48,142.65a3.59,3.59,0,0,0,0,.44c0,.77.39,1.16,1,1.16a1.21,1.21,0,0,0,1.14-.73h.53a1.77,1.77,0,0,1-1.74,1.17,1.37,1.37,0,0,1-1.43-1.57c0-1.16.63-2.61,2.08-2.61a1.26,1.26,0,0,1,1.37,1.4,3,3,0,0,1-.09.74Zm2.38-.42a2,2,0,0,0,0-.34.82.82,0,0,0-.92-.94c-.66,0-1.16.46-1.39,1.28Z"/><path class="cls-1" d="M52.24,140.59c.24,1.76.39,3,.43,3.55h0c.16-.37,1.56-2.81,2-3.55h.54l-2.28,4h-.61l-.54-4Z"/><path class="cls-1" d="M55.8,142.65a3.59,3.59,0,0,0,0,.44c0,.77.39,1.16,1,1.16a1.21,1.21,0,0,0,1.14-.73h.53a1.77,1.77,0,0,1-1.74,1.17,1.37,1.37,0,0,1-1.43-1.57c0-1.16.63-2.61,2.08-2.61a1.26,1.26,0,0,1,1.37,1.4,3,3,0,0,1-.09.74Zm2.38-.42a2,2,0,0,0,0-.34.82.82,0,0,0-.92-.94c-.66,0-1.16.46-1.39,1.28Z"/><path class="cls-1" d="M59.23,144.61l1.24-5.88H61l-1.25,5.88Z"/><path class="cls-1" d="M63.54,140.59h.69l.25-1.19H65l-.25,1.19h.89l-.1.44h-.89l-.55,2.59c-.09.41-.07.59.29.59a2,2,0,0,0,.42,0l-.1.42a1.47,1.47,0,0,1-.5.07c-.56,0-.78-.24-.65-.9l.58-2.74h-.69Z"/><path class="cls-1" d="M67.28,138.73l-.54,2.56a1.58,1.58,0,0,1,1.39-.78c.55,0,1.27.27,1,1.51l-.55,2.59h-.5l.53-2.5c.15-.74,0-1.13-.66-1.13a1.6,1.6,0,0,0-1.46,1.44L66,144.61h-.5l1.24-5.88Z"/><path class="cls-1" d="M72.86,143.61c-.06.31-.16.83-.19,1h-.5c0-.15.07-.42.12-.68a1.48,1.48,0,0,1-1.42.76,1,1,0,0,1-1.1-1c0-1.16,1.12-1.39,1.89-1.46.45,0,.82,0,1,0l0-.3c.09-.41,0-.94-.8-.94a1,1,0,0,0-1.09.73h-.52A1.5,1.5,0,0,1,72,140.51c.9,0,1.45.42,1.26,1.35Zm-.28-1c-.19,0-.48,0-.87,0-.67.06-1.39.23-1.39,1a.62.62,0,0,0,.7.62c.94,0,1.35-.72,1.55-1.59Z"/><path class="cls-1" d="M74.18,140.59h.69l.25-1.19h.51l-.25,1.19h.89l-.1.44h-.89l-.55,2.59c-.08.41-.07.59.29.59a2,2,0,0,0,.42,0l-.1.42a1.47,1.47,0,0,1-.5.07c-.56,0-.78-.24-.65-.9l.58-2.74h-.69Z"/><path class="cls-1" d="M78.59,140.59h.7l.25-1.19H80l-.25,1.19h.9l-.1.44h-.9l-.54,2.59c-.09.41-.07.59.29.59a2.08,2.08,0,0,0,.42,0l-.11.42a1.47,1.47,0,0,1-.5.07c-.55,0-.78-.24-.64-.9l.58-2.74h-.7Z"/><path class="cls-1" d="M82.33,138.73l-.54,2.56a1.59,1.59,0,0,1,1.39-.78c.56,0,1.28.27,1,1.51l-.55,2.59h-.5l.52-2.5c.16-.74,0-1.13-.66-1.13a1.6,1.6,0,0,0-1.45,1.44l-.47,2.19h-.51l1.25-5.88Z"/><path class="cls-1" d="M85.56,142.65a3.59,3.59,0,0,0,0,.44c0,.77.39,1.16,1,1.16a1.22,1.22,0,0,0,1.15-.73h.53a1.77,1.77,0,0,1-1.74,1.17A1.37,1.37,0,0,1,85,143.12c0-1.16.63-2.61,2.08-2.61a1.27,1.27,0,0,1,1.37,1.4,3,3,0,0,1-.09.74Zm2.38-.42a2,2,0,0,0,0-.34.82.82,0,0,0-.92-.94c-.66,0-1.16.46-1.39,1.28Z"/><path class="cls-1" d="M89.78,140.59c.29,1.81.48,3.25.51,3.64h0c.24-.43.76-1.58,1.87-3.64h.54l-2.25,4.27c-.71,1.33-1.06,1.43-1.76,1.43a1.56,1.56,0,0,1-.44,0l.13-.47a1.31,1.31,0,0,0,.36,0c.54,0,.74-.23,1.18-1l-.66-4.24Z"/><path class="cls-1" d="M98.07,143.61c-.07.31-.17.83-.19,1h-.5a5.2,5.2,0,0,1,.12-.68,1.48,1.48,0,0,1-1.42.76,1,1,0,0,1-1.1-1c0-1.16,1.11-1.39,1.89-1.46.45,0,.82,0,1,0l.06-.3c.08-.41,0-.94-.8-.94a1,1,0,0,0-1.1.73h-.51a1.5,1.5,0,0,1,1.66-1.16c.9,0,1.45.42,1.26,1.35Zm-.28-1c-.2,0-.48,0-.87,0-.68.06-1.39.23-1.39,1a.62.62,0,0,0,.7.62c.94,0,1.34-.72,1.55-1.59Z"/><path class="cls-1" d="M99.72,141.78c.09-.39.17-.82.24-1.19h.48c0,.11-.08.55-.16.9a1.67,1.67,0,0,1,1.45-1l-.12.54a1.88,1.88,0,0,0-1.57,1.63l-.41,1.93h-.51Z"/><path class="cls-1" d="M102.34,142.65a3.49,3.49,0,0,0,0,.44c0,.77.38,1.16,1,1.16a1.23,1.23,0,0,0,1.15-.73H105a1.76,1.76,0,0,1-1.74,1.17,1.37,1.37,0,0,1-1.43-1.57c0-1.16.63-2.61,2.08-2.61a1.27,1.27,0,0,1,1.38,1.4,2.65,2.65,0,0,1-.1.74Zm2.38-.42a1.31,1.31,0,0,0,0-.34.82.82,0,0,0-.92-.94c-.66,0-1.16.46-1.39,1.28Z"/><path class="cls-1" d="M109.52,138.73l-.54,2.56a1.58,1.58,0,0,1,1.39-.78c.55,0,1.27.27,1,1.51l-.55,2.59h-.5l.53-2.5c.15-.74,0-1.13-.66-1.13a1.59,1.59,0,0,0-1.45,1.44l-.48,2.19h-.5l1.24-5.88Z"/><path class="cls-1" d="M112.74,142.65a3.49,3.49,0,0,0,0,.44c0,.77.38,1.16,1,1.16a1.23,1.23,0,0,0,1.15-.73h.52a1.77,1.77,0,0,1-1.74,1.17,1.37,1.37,0,0,1-1.43-1.57c0-1.16.64-2.61,2.08-2.61a1.27,1.27,0,0,1,1.38,1.4,2.65,2.65,0,0,1-.1.74Zm2.38-.42a2,2,0,0,0,0-.34.82.82,0,0,0-.92-.94c-.66,0-1.16.46-1.39,1.28Z"/><path class="cls-1" d="M116.17,144.61l1.24-5.88h.51l-1.25,5.88Z"/><path class="cls-1" d="M118.57,144l-.47,2.19h-.51l.94-4.43c.12-.55.19-.94.23-1.19h.5c0,.09-.08.49-.13.76a1.6,1.6,0,0,1,1.42-.84c.81,0,1.27.6,1.27,1.51,0,1.33-.74,2.67-2.08,2.67A1.12,1.12,0,0,1,118.57,144Zm2.72-2c0-.7-.33-1.08-.9-1.08-.82,0-1.38.83-1.56,1.65s.06,1.61.93,1.61C120.81,144.24,121.29,143,121.29,142.06Z"/><path class="cls-1" d="M123,142.65a3.59,3.59,0,0,0,0,.44c0,.77.38,1.16,1,1.16a1.23,1.23,0,0,0,1.15-.73h.53a1.77,1.77,0,0,1-1.75,1.17c-1,0-1.42-.66-1.42-1.57,0-1.16.63-2.61,2.07-2.61a1.27,1.27,0,0,1,1.38,1.4,2.65,2.65,0,0,1-.1.74Zm2.38-.42a2,2,0,0,0,0-.34.83.83,0,0,0-.93-.94c-.66,0-1.16.46-1.38,1.28Z"/><path class="cls-1" d="M130.82,138.73l-1,4.75c-.08.38-.16.77-.23,1.13h-.49c0-.1.07-.41.12-.69a1.5,1.5,0,0,1-1.39.77c-.87,0-1.29-.66-1.29-1.55,0-1.16.69-2.63,2.1-2.63a1.12,1.12,0,0,1,1.15.7l.53-2.48Zm-3.75,4.37c0,.78.36,1.13.92,1.13.9,0,1.37-.83,1.56-1.75s-.09-1.5-.94-1.5C127.6,141,127.07,142.15,127.07,143.1Z"/><path class="cls-1" d="M134.34,138.73h.51l-.54,2.53a1.6,1.6,0,0,1,1.37-.75c.82,0,1.3.53,1.3,1.48,0,1.27-.67,2.7-2.11,2.7a1.11,1.11,0,0,1-1.14-.69c0,.23-.12.51-.15.61h-.5c0-.16.13-.56.25-1.08Zm2.11,3.3c0-.68-.29-1.05-.91-1.05-.84,0-1.37.8-1.55,1.63-.2,1,.07,1.63.92,1.63C136,144.24,136.45,143,136.45,142Z"/><path class="cls-1" d="M138.24,140.59c.28,1.81.48,3.25.51,3.64h0c.24-.43.76-1.58,1.87-3.64h.55l-2.26,4.27c-.71,1.33-1.06,1.43-1.76,1.43a1.43,1.43,0,0,1-.43,0l.12-.47a1.39,1.39,0,0,0,.37,0c.54,0,.74-.23,1.17-1l-.65-4.24Z"/><path class="cls-1" d="M8.07,148.73l-.54,2.56a1.59,1.59,0,0,1,1.39-.78c.55,0,1.27.26,1,1.51l-.54,2.59H8.88l.53-2.5c.16-.74,0-1.13-.66-1.13a1.59,1.59,0,0,0-1.45,1.44l-.47,2.19H6.32l1.25-5.88Z"/><path class="cls-1" d="M14.33,152.15a2.31,2.31,0,0,1-2.11,2.54,1.41,1.41,0,0,1-1.46-1.6c0-1.13.68-2.58,2.1-2.58A1.44,1.44,0,0,1,14.33,152.15Zm-3.05.93c0,.72.35,1.17,1,1.17,1.05,0,1.52-1.19,1.52-2.09,0-.74-.32-1.2-1-1.2C11.8,151,11.28,152.14,11.28,153.08Z"/><path class="cls-1" d="M15.44,151.78c.09-.39.17-.82.24-1.19h.48a7.6,7.6,0,0,1-.16.9,1.67,1.67,0,0,1,1.45-1l-.12.54a1.88,1.88,0,0,0-1.57,1.63l-.41,1.93h-.51Z"/><path class="cls-1" d="M18,153.42a.91.91,0,0,0,1,.84c.59,0,.92-.3.92-.73s-.29-.61-.88-.84c-.84-.31-1.1-.6-1.1-1.06s.45-1.12,1.38-1.12,1.37.59,1.35,1.14h-.51c0-.3-.17-.71-.9-.71-.48,0-.8.25-.8.64s.24.46.83.69c.81.3,1.16.63,1.16,1.19,0,.76-.57,1.23-1.53,1.23s-1.45-.55-1.46-1.27Z"/><path class="cls-1" d="M21.7,152.65a2.32,2.32,0,0,0,0,.44c0,.77.38,1.16,1,1.16a1.23,1.23,0,0,0,1.15-.73h.53a1.77,1.77,0,0,1-1.75,1.17c-1,0-1.42-.66-1.42-1.57,0-1.16.63-2.61,2.07-2.61a1.27,1.27,0,0,1,1.38,1.4,2.65,2.65,0,0,1-.1.74Zm2.37-.42a1.31,1.31,0,0,0,0-.34.82.82,0,0,0-.92-.94c-.66,0-1.16.46-1.39,1.28Z"/><path class="cls-1" d="M25.52,153.42a.91.91,0,0,0,1,.84c.59,0,.92-.3.92-.73s-.29-.61-.88-.84c-.84-.31-1.1-.6-1.1-1.06s.45-1.12,1.38-1.12,1.37.59,1.35,1.14h-.51c0-.3-.17-.71-.9-.71-.48,0-.8.25-.8.64s.24.46.83.69c.81.3,1.16.63,1.16,1.19,0,.76-.57,1.23-1.53,1.23S25,154.14,25,153.42Z"/><path class="cls-1" d="M28.44,155.48a7.51,7.51,0,0,0,.85-2h.51a5.28,5.28,0,0,1-.9,2Z"/><path class="cls-1" d="M35.52,153.61c-.06.31-.16.83-.19,1h-.5c0-.15.07-.42.12-.67a1.48,1.48,0,0,1-1.41.75,1,1,0,0,1-1.1-1c0-1.16,1.11-1.39,1.88-1.46.45,0,.82,0,1,0l.06-.3c.08-.41,0-.94-.8-.94a1,1,0,0,0-1.1.73H33a1.51,1.51,0,0,1,1.66-1.16c.91,0,1.45.42,1.26,1.35Zm-.27-1c-.2,0-.49,0-.88,0-.67.06-1.39.23-1.39,1a.63.63,0,0,0,.71.62c.93,0,1.34-.72,1.54-1.59Z"/><path class="cls-1" d="M37.21,151.61c.07-.35.14-.69.2-1h.5c0,.13-.11.65-.14.76a1.52,1.52,0,0,1,1.4-.84c.76,0,1.25.43,1,1.56l-.54,2.54h-.5l.53-2.51c.14-.67,0-1.12-.68-1.12-.84,0-1.31.8-1.49,1.65l-.42,2h-.5Z"/><path class="cls-1" d="M45.29,148.73l-1,4.75c-.08.38-.16.77-.22,1.13h-.49a5.56,5.56,0,0,1,.12-.69,1.52,1.52,0,0,1-1.4.77c-.86,0-1.28-.66-1.28-1.55,0-1.16.69-2.63,2.09-2.63a1.13,1.13,0,0,1,1.16.7l.52-2.48Zm-3.75,4.37c0,.78.35,1.13.91,1.13.91,0,1.38-.83,1.56-1.75s-.09-1.5-.93-1.5C42.06,151,41.54,152.15,41.54,153.1Z"/><path class="cls-1" d="M48.16,151.78c.09-.39.17-.82.24-1.19h.48a7.6,7.6,0,0,1-.16.9,1.67,1.67,0,0,1,1.45-1l-.12.54a1.88,1.88,0,0,0-1.57,1.63l-.41,1.93h-.51Z"/><path class="cls-1" d="M53.81,152.15a2.31,2.31,0,0,1-2.1,2.54,1.4,1.4,0,0,1-1.46-1.6c0-1.13.67-2.58,2.09-2.58A1.44,1.44,0,0,1,53.81,152.15Zm-3,.93c0,.72.35,1.17,1,1.17,1,0,1.52-1.19,1.52-2.09,0-.74-.32-1.2-1-1.2C51.28,151,50.77,152.14,50.77,153.08Z"/><path class="cls-1" d="M54.81,153.42a.9.9,0,0,0,1,.84c.59,0,.91-.3.91-.73s-.28-.61-.88-.84c-.83-.31-1.09-.6-1.09-1.06s.45-1.12,1.38-1.12,1.36.59,1.35,1.14H57c0-.3-.18-.71-.9-.71-.48,0-.8.25-.8.64s.23.46.83.69c.81.3,1.16.63,1.16,1.19,0,.76-.57,1.23-1.54,1.23s-1.45-.55-1.46-1.27Z"/><path class="cls-1" d="M58.54,152.65a3.49,3.49,0,0,0,0,.44c0,.77.38,1.16,1,1.16a1.23,1.23,0,0,0,1.15-.73h.52a1.76,1.76,0,0,1-1.74,1.17A1.37,1.37,0,0,1,58,153.12c0-1.16.64-2.61,2.08-2.61a1.27,1.27,0,0,1,1.38,1.4,2.65,2.65,0,0,1-.1.74Zm2.38-.42a2,2,0,0,0,0-.34A.82.82,0,0,0,60,151c-.66,0-1.16.46-1.39,1.28Z"/><path class="cls-1" d="M62.37,153.42a.9.9,0,0,0,1,.84c.59,0,.91-.3.91-.73s-.28-.61-.88-.84c-.83-.31-1.09-.6-1.09-1.06s.45-1.12,1.38-1.12,1.36.59,1.35,1.14h-.51c0-.3-.18-.71-.9-.71-.48,0-.8.25-.8.64s.23.46.83.69c.81.3,1.16.63,1.16,1.19,0,.76-.57,1.23-1.54,1.23s-1.45-.55-1.46-1.27Z"/><path class="cls-1" d="M65.28,155.48a6.87,6.87,0,0,0,.85-2h.52a5.45,5.45,0,0,1-.9,2Z"/><path class="cls-1" d="M72.37,153.61c-.06.31-.16.83-.19,1h-.5c0-.15.07-.42.12-.67a1.49,1.49,0,0,1-1.42.75,1,1,0,0,1-1.1-1c0-1.16,1.12-1.39,1.89-1.46.45,0,.82,0,1,0l.06-.3c.08-.41,0-.94-.81-.94a1,1,0,0,0-1.09.73h-.52a1.5,1.5,0,0,1,1.66-1.16c.9,0,1.45.42,1.26,1.35Zm-.28-1c-.19,0-.48,0-.87,0-.67.06-1.39.23-1.39,1a.62.62,0,0,0,.71.62c.93,0,1.34-.72,1.54-1.59Z"/><path class="cls-1" d="M74.06,151.61c.07-.35.14-.69.2-1h.5c0,.13-.11.65-.14.76a1.52,1.52,0,0,1,1.4-.84c.76,0,1.25.43,1,1.56l-.53,2.54H76l.52-2.51c.15-.67,0-1.12-.68-1.12s-1.3.8-1.48,1.65l-.42,2h-.51Z"/><path class="cls-1" d="M82.14,148.73l-1,4.75c-.08.38-.16.77-.22,1.13h-.5c0-.1.07-.41.13-.69a1.52,1.52,0,0,1-1.4.77c-.87,0-1.28-.66-1.28-1.55,0-1.16.69-2.63,2.09-2.63a1.15,1.15,0,0,1,1.16.7l.52-2.48Zm-3.76,4.37c0,.78.36,1.13.92,1.13.9,0,1.37-.83,1.56-1.75s-.09-1.5-.93-1.5C78.91,151,78.38,152.15,78.38,153.1Z"/><path class="cls-1" d="M87.48,153.61c-.07.31-.17.83-.2,1h-.5c0-.15.07-.42.13-.67a1.51,1.51,0,0,1-1.42.75,1,1,0,0,1-1.1-1c0-1.16,1.11-1.39,1.88-1.46.45,0,.82,0,1,0l.06-.3c.08-.41,0-.94-.8-.94a1,1,0,0,0-1.1.73h-.52a1.51,1.51,0,0,1,1.66-1.16c.91,0,1.46.42,1.26,1.35Zm-.28-1c-.2,0-.48,0-.88,0-.67.06-1.39.23-1.39,1a.63.63,0,0,0,.71.62c.93,0,1.34-.72,1.54-1.59Z"/><path class="cls-1" d="M93.84,153.45a1.76,1.76,0,0,1-1.73,1.24c-1,0-1.42-.66-1.42-1.58,0-1.22.67-2.6,2-2.6a1.23,1.23,0,0,1,1.35,1.34h-.5c0-.51-.26-.9-.89-.9-1,0-1.48,1.16-1.48,2.12s.39,1.19,1,1.19a1.26,1.26,0,0,0,1.13-.81Z"/><path class="cls-1" d="M95.11,151.78c.08-.39.17-.82.23-1.19h.49c0,.1-.08.55-.16.9a1.67,1.67,0,0,1,1.44-1l-.12.54a1.88,1.88,0,0,0-1.57,1.63L95,154.61H94.5Z"/><path class="cls-1" d="M100,153.61c-.06.31-.16.83-.19,1h-.5c0-.15.07-.42.12-.67a1.48,1.48,0,0,1-1.41.75,1,1,0,0,1-1.1-1c0-1.16,1.11-1.39,1.88-1.46.45,0,.82,0,1,0l.06-.3c.08-.41,0-.94-.81-.94a1,1,0,0,0-1.09.73h-.52a1.51,1.51,0,0,1,1.66-1.16c.91,0,1.45.42,1.26,1.35Zm-.27-1c-.2,0-.49,0-.88,0-.67.06-1.39.23-1.39,1a.63.63,0,0,0,.71.62c.93,0,1.34-.72,1.54-1.59Z"/><path class="cls-1" d="M104.32,153.45a1.74,1.74,0,0,1-1.72,1.24c-1,0-1.43-.66-1.43-1.58,0-1.22.68-2.6,2-2.6a1.21,1.21,0,0,1,1.34,1.34h-.5a.81.81,0,0,0-.88-.9c-1,0-1.48,1.16-1.48,2.12s.39,1.19,1,1.19a1.27,1.27,0,0,0,1.13-.81Z"/><path class="cls-1" d="M105.93,152.52c.4-.36,1.64-1.39,2.25-1.93h.67L107,152.15l1.12,2.46h-.58l-.94-2.14-.79.61-.32,1.53H105l1.25-5.88h.5Z"/><path class="cls-1" d="M108.69,154.61l1.24-5.88h.51l-1.25,5.88Z"/><path class="cls-1" d="M111.33,150.59h.51l-.85,4h-.51Zm.39-1.86h.51l-.17.82h-.51Z"/><path class="cls-1" d="M112.88,151.61c.07-.35.13-.69.2-1h.49c0,.13-.11.65-.14.76a1.55,1.55,0,0,1,1.41-.84c.75,0,1.24.43,1,1.56l-.53,2.54h-.51l.53-2.51c.14-.67,0-1.12-.68-1.12-.84,0-1.3.8-1.48,1.65l-.42,2h-.51Z"/><path class="cls-1" d="M119.74,154.29c-.27,1.26-.68,2-2,2s-1.45-.73-1.44-1.19h.51c0,.41.28.76,1,.76.93,0,1.21-.64,1.44-1.63l.1-.45a1.48,1.48,0,0,1-1.36.83c-.78,0-1.3-.54-1.3-1.55,0-1.19.7-2.55,2-2.55a1.07,1.07,0,0,1,1.16.72c.05-.21.13-.51.18-.64h.48c-.08.33-.16.73-.24,1.09ZM117.22,153c0,.75.33,1.11.91,1.11.82,0,1.32-.77,1.51-1.65s-.06-1.52-.93-1.52S117.22,152,117.22,153Z"/><path class="cls-1" d="M123.11,154.62l.75-3.58h-.67l.1-.44H124l.14-.64c.15-.71.5-1.3,1.29-1.3a1.49,1.49,0,0,1,.44.06l-.1.45a2,2,0,0,0-.36,0c-.41,0-.65.28-.76.83l-.14.64h.84l-.1.44h-.84l-.76,3.58Z"/><path class="cls-1" d="M126,150.59h.51l-.85,4h-.51Zm.4-1.86h.5l-.17.82h-.5Z"/><path class="cls-1" d="M127.55,151.78c.09-.39.17-.82.24-1.19h.48c0,.1-.08.55-.16.9a1.67,1.67,0,0,1,1.44-1l-.11.54a1.88,1.88,0,0,0-1.57,1.63l-.41,1.93H127Z"/><path class="cls-1" d="M130.17,152.65a3.49,3.49,0,0,0,0,.44c0,.77.38,1.16,1,1.16a1.23,1.23,0,0,0,1.15-.73h.52a1.76,1.76,0,0,1-1.74,1.17,1.37,1.37,0,0,1-1.43-1.57c0-1.16.63-2.61,2.08-2.61a1.27,1.27,0,0,1,1.38,1.4,2.65,2.65,0,0,1-.1.74Zm2.38-.42a1.31,1.31,0,0,0,0-.34.82.82,0,0,0-.92-.94c-.66,0-1.16.46-1.39,1.28Z"/><path class="cls-1" d="M133.66,154.62l.23-1.1h.53l-.23,1.1Z"/><path class="cls-1" d="M36.36,174.4c-.83.08-.91.13-.91,1v4c0,.84.09.86.91,1v.28H33.68v-.28c.83-.1.91-.11.91-1v-2H31.17v2c0,.82.08.85.9,1v.28H29.4v-.28c.81-.09.9-.11.9-1v-4c0-.84-.09-.89-.9-1v-.28h2.67v.28c-.8.07-.9.14-.9,1V177h3.42v-1.59c0-.83-.11-.9-.91-1v-.28h2.68Z"/><path class="cls-1" d="M38.78,176.11A2.15,2.15,0,0,1,41,178.35a2.23,2.23,0,0,1-2.18,2.38,2.19,2.19,0,0,1-2.22-2.22A2.29,2.29,0,0,1,38.78,176.11Zm-.12.34c-.61,0-1.16.59-1.16,1.75s.56,2.19,1.38,2.19c.62,0,1.14-.45,1.14-1.82C40,177.4,39.54,176.45,38.66,176.45Z"/><path class="cls-1" d="M48,176.5c-.51.08-.6.19-.81.75-.29.77-.77,2.16-1.2,3.48h-.31c-.4-1.08-.81-2.11-1.2-3.14-.37.92-.82,2-1.22,3.14h-.3c-.36-1.19-.74-2.37-1.15-3.57-.18-.54-.27-.6-.76-.66v-.27h2.08v.27c-.6.1-.64.15-.5.61.23.77.5,1.59.74,2.34.4-1,.8-2.06,1.19-3.17h.27c.37,1,.78,2.12,1.2,3.2.22-.61.54-1.59.73-2.32.13-.52,0-.57-.63-.66v-.27H48Z"/><path class="cls-1" d="M52.55,180.61v-.28c.58-.06.66-.1.66-.77v-1.63c0-.83-.32-1.25-1-1.24a1.43,1.43,0,0,0-1.06.52v2.35c0,.66.08.71.68.77v.28H49.66v-.28c.58-.05.71-.1.71-.77v-4.81c0-.53,0-.66-.7-.72v-.26a6.19,6.19,0,0,0,1.49-.34v3.41a2.26,2.26,0,0,1,1.45-.73c.82,0,1.39.51,1.39,1.71v1.76c0,.65.08.7.66.75v.28Z"/><path class="cls-1" d="M58.12,180.73a.73.73,0,0,1-.47-.19,1,1,0,0,1-.24-.44,3.25,3.25,0,0,1-1.2.63A1.22,1.22,0,0,1,55,179.51a1,1,0,0,1,.82-1,7.87,7.87,0,0,0,1.58-.65v-.2c0-.71-.36-1.12-.88-1.12a.58.58,0,0,0-.47.23,2.15,2.15,0,0,0-.27.65.28.28,0,0,1-.29.23.48.48,0,0,1-.44-.44c0-.14.13-.26.33-.4a4.2,4.2,0,0,1,1.44-.7,1.31,1.31,0,0,1,1.35,1.43v1.93c0,.46.17.59.35.59a.78.78,0,0,0,.36-.1l.1.27Zm-.73-2.52c-.22.11-.7.32-.93.42-.38.17-.61.36-.61.72a.73.73,0,0,0,.72.78,1.33,1.33,0,0,0,.82-.36Z"/><path class="cls-1" d="M61.37,180.61h-2.3v-.28c.63-.06.69-.1.69-.75V177.5c0-.66,0-.69-.62-.76v-.25a5.54,5.54,0,0,0,1.41-.41v1.1c.35-.52.77-1.07,1.27-1.07a.52.52,0,0,1,.58.48.67.67,0,0,1-.34.55.2.2,0,0,1-.26,0,.63.63,0,0,0-.45-.25c-.21,0-.58.31-.8.82v1.87c0,.67.05.71.82.77Z"/><path class="cls-1" d="M67.25,180.36a10.58,10.58,0,0,0-1.55.37v-.64l-.62.35a1.82,1.82,0,0,1-.79.29,2.07,2.07,0,0,1-1.86-2.19A2.52,2.52,0,0,1,65,176.11a2,2,0,0,1,.68.11v-1.47c0-.64-.07-.66-.78-.72v-.26a10,10,0,0,0,1.57-.34v6c0,.52.07.59.44.6l.32,0ZM65.7,177a1.25,1.25,0,0,0-1-.51c-.48,0-1.33.32-1.33,1.76,0,1.21.75,1.84,1.39,1.85a1.79,1.79,0,0,0,1-.35Z"/><path class="cls-1" d="M73.2,179.72a2.37,2.37,0,0,1-1.71,1,2,2,0,0,1-2-2.09,2.37,2.37,0,0,1,1-2,2.65,2.65,0,0,1,1.52-.57,1.48,1.48,0,0,1,.93.27.32.32,0,0,1,.16.29.5.5,0,0,1-.36.45s-.09,0-.19-.1a1.49,1.49,0,0,0-1-.42c-.66,0-1.24.56-1.24,1.6a1.63,1.63,0,0,0,1.52,1.85A1.6,1.6,0,0,0,73,179.5Z"/><path class="cls-1" d="M75.65,176.11a2.15,2.15,0,0,1,2.18,2.24,2.23,2.23,0,0,1-2.18,2.38,2.19,2.19,0,0,1-2.22-2.22A2.29,2.29,0,0,1,75.65,176.11Zm-.12.34c-.61,0-1.16.59-1.16,1.75s.56,2.19,1.38,2.19c.62,0,1.14-.45,1.14-1.82C76.89,177.4,76.41,176.45,75.53,176.45Z"/><path class="cls-1" d="M83.06,180.39a10.08,10.08,0,0,0-1.53.34V180a2.5,2.5,0,0,1-1.53.76c-.67,0-1.25-.41-1.25-1.49V177.3c0-.54-.08-.6-.33-.65l-.28-.05v-.26a13.58,13.58,0,0,0,1.43-.18c0,.32,0,.8,0,1.46V179c0,.87.46,1.12.91,1.12a1.61,1.61,0,0,0,1.08-.47V177.3c0-.54-.12-.61-.46-.66l-.32,0v-.26a14.16,14.16,0,0,0,1.57-.18v3.35c0,.5.08.56.46.59h.28Z"/><path class="cls-1" d="M83.09,180.61v-.28c.64-.06.72-.1.72-.77v-4.78c0-.61,0-.67-.69-.75v-.26a7.09,7.09,0,0,0,1.48-.34v6.13c0,.67.06.71.71.77v.28Z"/><path class="cls-1" d="M90.35,180.36a10.58,10.58,0,0,0-1.55.37v-.64l-.62.35a1.82,1.82,0,0,1-.79.29,2.07,2.07,0,0,1-1.86-2.19,2.52,2.52,0,0,1,2.59-2.43,2,2,0,0,1,.68.11v-1.47c0-.64-.07-.66-.78-.72v-.26a10,10,0,0,0,1.57-.34v6c0,.52.07.59.44.6l.32,0ZM88.8,177a1.25,1.25,0,0,0-1-.51c-.48,0-1.33.32-1.33,1.76,0,1.21.75,1.84,1.39,1.85a1.79,1.79,0,0,0,1-.35Z"/><path class="cls-1" d="M92.51,180.61v-.28c.63-.06.7-.1.7-.78v-2.06c0-.62,0-.66-.63-.76v-.24a6.55,6.55,0,0,0,1.42-.4v3.46c0,.68.07.72.72.78v.28Zm1-5.5a.55.55,0,0,1-.53-.53.54.54,0,0,1,.54-.55.52.52,0,0,1,.51.55A.53.53,0,0,1,93.55,175.11Z"/><path class="cls-1" d="M96.81,180.6a1,1,0,0,1-.43.13c-.64,0-1-.38-1-1.18v-2.91h-.69l0-.12.27-.29h.46v-.84c.19-.2.48-.46.67-.66l.15,0c0,.42,0,1,0,1.48h1.14a.31.31,0,0,1-.06.41H96.19v2.56c0,.81.32,1,.58,1a1.43,1.43,0,0,0,.61-.16l.09.27Z"/><path class="cls-1" d="M101.66,176.21a1.18,1.18,0,0,1,.44-.1,2,2,0,0,1,2,2.12,2.53,2.53,0,0,1-2.47,2.5,3.71,3.71,0,0,1-1.54-.36v-5.61c0-.62,0-.68-.67-.73v-.26a8.25,8.25,0,0,0,1.46-.34v3.13Zm-.81,3.25a.86.86,0,0,0,.05.35,1.14,1.14,0,0,0,1,.54c.86,0,1.29-.75,1.29-1.87a1.61,1.61,0,0,0-1.52-1.81,1.93,1.93,0,0,0-.81.19Z"/><path class="cls-1" d="M108.17,179.77a2.29,2.29,0,0,1-1.66,1,2,2,0,0,1-2-2.14,2.57,2.57,0,0,1,.65-1.75,2.05,2.05,0,0,1,1.49-.73,1.56,1.56,0,0,1,1.53,1.55c0,.2,0,.29-.2.33s-1.48.13-2.67.17c0,1.34.79,1.89,1.5,1.89a1.69,1.69,0,0,0,1.16-.51Zm-1.72-3.28c-.46,0-.91.43-1,1.24.56,0,1.12,0,1.71,0,.18,0,.24,0,.24-.2A.93.93,0,0,0,106.45,176.49Z"/><path class="cls-1" d="M110.55,178.68c-.37-.13-1-.6-1-1.16,0-.38.23-.69.87-1.2s.83-.72.83-1.09a.64.64,0,0,0-.68-.67c-.66,0-1,.62-1.18.62a.54.54,0,0,1-.43-.47.47.47,0,0,1,.19-.37,1.75,1.75,0,0,1,1.08-.36,1.62,1.62,0,0,1,1.59,1.57,1.51,1.51,0,0,1-.71,1.25c-.5.42-.77.61-.77.94s.14.45.41.7Zm-.25,2.07a.64.64,0,0,1,0-1.27.62.62,0,0,1,.62.63A.61.61,0,0,1,110.3,180.75Z"/></svg>